<svg xmlns="http://www.w3.org/2000/svg" width="211" height="77" fill="none" xmlns:v="https://vecta.io/nano"><g fill="#e1e1e6"><path d="M121.402 31h-3.714l.023-2.742h3.691c.922 0 1.7-.207 2.332-.621.633-.422 1.11-1.035 1.43-1.84.328-.805.492-1.777.492-2.918v-.832c0-.875-.094-1.645-.281-2.309-.18-.664-.449-1.223-.809-1.676s-.8-.793-1.324-1.02c-.523-.234-1.125-.352-1.804-.352h-3.821v-2.754h3.821c1.14 0 2.183.195 3.128.586.954.383 1.778.934 2.473 1.652s1.231 1.578 1.606 2.578c.382.992.574 2.098.574 3.316v.809c0 1.211-.192 2.316-.574 3.316-.375 1-.911 1.859-1.606 2.578a7.12 7.12 0 0 1-2.473 1.652c-.953.383-2.007.574-3.164.574zm-1.722-17.062V31h-3.516V13.938h3.516zm12.093 0h6.364c1.304 0 2.425.195 3.363.586.945.391 1.672.969 2.18 1.734s.761 1.707.761 2.824c0 .914-.156 1.699-.468 2.355a4.42 4.42 0 0 1-1.301 1.629c-.555.43-1.207.773-1.957 1.031l-1.113.586h-5.532l-.023-2.742h4.113c.617 0 1.129-.109 1.535-.328s.711-.523.914-.914c.211-.391.317-.844.317-1.359 0-.547-.102-1.02-.305-1.418s-.512-.703-.926-.914-.933-.316-1.558-.316h-2.848V31h-3.516V13.938zM141.312 31l-3.89-7.605 3.715-.023 3.937 7.465V31h-3.762zm12.774-14.144L149.445 31h-3.738l6.34-17.062h2.379l-.34 2.918zM157.941 31l-4.652-14.144-.375-2.918h2.402L161.691 31h-3.75zm-.211-6.352v2.754h-9.011v-2.754h9.011zm18.856-2.566v6.762c-.266.32-.676.668-1.231 1.043-.554.367-1.269.684-2.144.949s-1.934.399-3.176.399c-1.101 0-2.105-.18-3.012-.539-.906-.367-1.687-.902-2.343-1.605-.649-.703-1.149-1.562-1.5-2.578-.352-1.023-.528-2.191-.528-3.504v-1.066c0-1.312.168-2.481.504-3.504.344-1.023.832-1.887 1.465-2.59a6.27 6.27 0 0 1 2.262-1.605c.875-.367 1.847-.551 2.918-.551 1.484 0 2.703.242 3.656.727.953.477 1.68 1.141 2.18 1.992.508.844.82 1.813.937 2.906h-3.41c-.086-.578-.25-1.082-.492-1.512s-.59-.766-1.043-1.008c-.445-.242-1.024-.363-1.734-.363-.586 0-1.11.121-1.571.363-.453.234-.836.582-1.148 1.043s-.551 1.031-.715 1.711-.246 1.469-.246 2.367v1.09c0 .891.086 1.68.258 2.367.172.68.425 1.254.761 1.723.344.461.766.808 1.266 1.043s1.082.352 1.746.352c.555 0 1.016-.047 1.383-.141.375-.094.676-.207.902-.34a2.81 2.81 0 0 0 .539-.398V24.59h-3.211v-2.508h6.727zm9.773-5.227L181.719 31h-3.739l6.34-17.062h2.379l-.34 2.918zM190.215 31l-4.653-14.144-.374-2.918h2.402L193.965 31h-3.75zm-.211-6.352v2.754h-9.012v-2.754h9.012zm-1.559-15.223l1.946.129c0 .57-.114 1.09-.34 1.559-.227.461-.539.832-.938 1.113-.398.273-.855.41-1.371.41a2.79 2.79 0 0 1-.972-.152c-.266-.102-.512-.219-.739-.352a4.98 4.98 0 0 0-.703-.363c-.234-.102-.504-.152-.808-.152a.96.96 0 0 0-.704.293c-.187.195-.281.476-.281.844l-1.957-.105a3.5 3.5 0 0 1 .34-1.547c.227-.469.539-.844.937-1.125a2.26 2.26 0 0 1 1.36-.434 2.29 2.29 0 0 1 .879.164c.265.102.519.219.761.352.25.133.504.25.762.352a2.22 2.22 0 0 0 .821.152.96.96 0 0 0 .703-.293c.203-.203.304-.484.304-.844zm20.907 12.645v.809c0 1.297-.176 2.461-.528 3.492s-.847 1.91-1.488 2.637c-.641.719-1.406 1.27-2.297 1.652-.883.383-1.863.574-2.941.574-1.071 0-2.051-.191-2.942-.574-.883-.383-1.648-.934-2.297-1.652-.648-.727-1.152-1.605-1.511-2.637-.352-1.031-.528-2.195-.528-3.492v-.809c0-1.305.176-2.469.528-3.492.351-1.031.847-1.91 1.488-2.637a6.52 6.52 0 0 1 2.297-1.664c.89-.383 1.871-.574 2.941-.574 1.078 0 2.059.191 2.942.574.89.383 1.656.938 2.296 1.664.649.727 1.149 1.606 1.5 2.637.36 1.024.54 2.188.54 3.492zm-3.551.809v-.832c0-.906-.082-1.703-.246-2.391s-.407-1.266-.727-1.734-.711-.82-1.172-1.055c-.461-.242-.988-.363-1.582-.363s-1.121.121-1.582.363c-.453.234-.84.586-1.16 1.055-.312.469-.551 1.047-.715 1.734s-.246 1.484-.246 2.391v.832c0 .898.082 1.695.246 2.391.164.688.406 1.27.727 1.746.32.469.711.824 1.172 1.066s.988.363 1.582.363 1.121-.121 1.582-.363.847-.598 1.16-1.066c.312-.476.551-1.059.715-1.746.164-.695.246-1.492.246-2.391zm-83.11 31.633h-4.382l-.024-2.414h3.68c.648 0 1.18-.082 1.594-.246.414-.172.722-.418.925-.738.211-.328.317-.727.317-1.195 0-.531-.102-.961-.305-1.289-.195-.328-.504-.566-.926-.715-.414-.148-.949-.223-1.605-.223h-2.438V62h-3.515V44.938h5.953c.992 0 1.879.094 2.66.281.789.187 1.457.473 2.004.855s.965.867 1.254 1.453c.289.578.433 1.266.433 2.063 0 .703-.16 1.352-.48 1.945-.313.594-.809 1.078-1.488 1.453-.672.375-1.551.582-2.637.621l-1.02.902zM122.539 62h-5.191l1.371-2.742h3.82c.617 0 1.121-.098 1.512-.293.39-.203.679-.476.867-.82s.281-.738.281-1.184c0-.5-.086-.934-.258-1.301-.164-.367-.429-.649-.796-.844-.368-.203-.852-.305-1.454-.305h-3.386l.023-2.414h4.219l.808.949c1.04-.016 1.875.168 2.508.551.641.375 1.106.863 1.395 1.465a4.31 4.31 0 0 1 .445 1.934c0 1.094-.238 2.016-.715 2.766-.476.742-1.176 1.301-2.097 1.676-.914.375-2.032.563-3.352.563zm8.801-17.062h6.363c1.305 0 2.426.195 3.363.586.946.391 1.672.969 2.18 1.734s.762 1.707.762 2.824c0 .914-.156 1.699-.469 2.355a4.41 4.41 0 0 1-1.301 1.629c-.554.43-1.207.773-1.957 1.031l-1.113.586h-5.531l-.024-2.742h4.114c.617 0 1.128-.109 1.535-.328a2.15 2.15 0 0 0 .914-.914c.211-.391.316-.844.316-1.359 0-.547-.101-1.019-.304-1.418a2.06 2.06 0 0 0-.926-.914c-.414-.211-.934-.316-1.559-.316h-2.848V62h-3.515V44.938zM140.879 62l-3.891-7.605 3.715-.023 3.938 7.465V62h-3.762zm12.773-14.144L149.012 62h-3.739l6.34-17.062h2.379l-.34 2.918zM157.508 62l-4.653-14.144-.375-2.918h2.403L161.258 62h-3.75zm-.211-6.352v2.754h-9.012v-2.754h9.012zm19.43-10.711V62h-3.516l-6.856-11.437V62h-3.515V44.938h3.515l6.868 11.449V44.938h3.504zm12.949 11.402h3.504c-.071 1.149-.387 2.168-.95 3.059-.554.891-1.332 1.586-2.332 2.086-.992.5-2.187.75-3.586.75-1.093 0-2.074-.187-2.941-.562-.867-.383-1.609-.93-2.226-1.641-.61-.711-1.075-1.57-1.395-2.578s-.48-2.137-.48-3.387v-1.184c0-1.25.164-2.379.492-3.387.336-1.016.812-1.879 1.429-2.59.625-.711 1.371-1.258 2.239-1.641s1.836-.574 2.906-.574c1.422 0 2.621.258 3.598.773.984.516 1.746 1.227 2.285 2.133.547.906.875 1.938.984 3.094h-3.515c-.04-.687-.176-1.27-.411-1.746a2.32 2.32 0 0 0-1.066-1.09c-.469-.25-1.094-.375-1.875-.375-.586 0-1.098.109-1.535.328s-.805.551-1.102.996-.519 1.008-.668 1.688c-.14.672-.211 1.461-.211 2.367v1.207c0 .883.067 1.66.2 2.332.132.664.335 1.227.609 1.688.281.453.641.797 1.078 1.031.445.227.981.34 1.605.34.735 0 1.34-.117 1.817-.352a2.43 2.43 0 0 0 1.09-1.043c.258-.461.41-1.035.457-1.723zm19.828-3.269v.809c0 1.297-.176 2.461-.527 3.492s-.848 1.91-1.489 2.637c-.64.719-1.406 1.269-2.297 1.652-.882.383-1.863.574-2.941.574-1.07 0-2.051-.191-2.941-.574-.883-.383-1.649-.934-2.297-1.652-.649-.727-1.153-1.606-1.512-2.637-.352-1.031-.527-2.195-.527-3.492v-.809c0-1.305.175-2.469.527-3.492.352-1.031.848-1.91 1.488-2.637a6.53 6.53 0 0 1 2.297-1.664c.891-.383 1.871-.574 2.942-.574 1.078 0 2.058.191 2.941.574a6.39 6.39 0 0 1 2.297 1.664c.648.727 1.148 1.605 1.5 2.637.359 1.023.539 2.188.539 3.492zm-3.551.809v-.832c0-.906-.082-1.703-.246-2.391s-.406-1.266-.727-1.734-.71-.82-1.171-1.055c-.461-.242-.989-.363-1.582-.363s-1.122.121-1.582.363c-.454.234-.84.586-1.161 1.055-.312.469-.55 1.047-.714 1.734s-.247 1.484-.247 2.391v.832c0 .898.082 1.695.247 2.391.164.688.406 1.27.726 1.746.32.469.711.824 1.172 1.066s.988.363 1.582.363 1.121-.121 1.582-.363a3.14 3.14 0 0 0 1.16-1.066c.313-.477.551-1.059.715-1.746.164-.695.246-1.492.246-2.391z"/><g fill-rule="evenodd"><path d="M74.036.009c-.24-.009-.239.008-.443-.009l-.013.101c.603.212 1.777 1.364 2.054 1.811.612.105 1.255.619 1.335-.001 0-.003-.178-.258-.212-.341-.052-.13-.064-.249-.117-.397-.111-.311-.165-.521-.299-.802l-.126-.015-.927-.199-.561-.101-.692-.048zm-3.177 1.477l-.013.101c.295.104.764.385 1.129.542a6.88 6.88 0 0 0 1.416.417l.249.038c.638.098 1.492-.141 1.607-.629-.481-.169-1.542-1.217-1.745-1.248-.216-.033-2.201.752-2.643.779zm8.853 2.807c.011-.428-.15-.874-.217-1.271-.123-.73.092-.634-.53-1.131-.685-.548-1.249-1.149-2.036-1.635-.149 1.153 1.31 3.81 2.783 4.037zm-11.118-.526l.554.137.312.048c1.214.187 2.804-.55 3.379-1.07l-.677-.163a4.28 4.28 0 0 1-1.325-.565c-.097.41-.681.717-.997.941-.286.203-.312.185-.585.349-.208.125-.545.227-.661.324zm13.724 2.99l.033-.253c.09-.693-.484-1.735-.722-2.277-.161-.365-1.358-1.364-1.755-1.662.217 1.433 1.301 3.334 2.445 4.191zm10.563 5.802c.081-.023.073-.04.194-.022l.561.086.124.019c.178.11.475.259.446.481-.015.116-.063.145-.207.123-.577-.089-.925-.374-1.119-.688zm-6.157-2.031c.863.149 2.878 1.503 3.176 1.984-.27-.095-.699-.389-.967-.545-.334-.193-.778-.315-1.06-.489l-.125-.019-.436-.067-.125-.019c-.274.071-.529.16-.57.479-.097.752 1.566 1.52 2.034 1.963-.191-.043-1.115-.538-1.265-.647l-.551-.372c-.178-.133-.274-.32-.47-.467l-.078.607c-.242-.092-.335-.357-.302-.614l.039-.303c.041-.315.234-.412.334-.619l-.312-.048c-.168-.026-.175-.002-.318.003.134-.277.608-.422 1.063-.352l.312.048c-.048-.251-.255-.325-.377-.522zm.564-1.408l2.05 1.347.124.021.555.135c.058-.129.075-.086.088-.192.032-.249-.876-.754-1.23-.808l.007-.051.872.134c.554.085.903.39.843.852l-.013.101c-.219.252-.111.239-.488.337l-.125-.019-.062-.01-.127-.017-.234-.142c-.192.07-.534.279-.794.239-.386-.059-.846-.561-.837-.902.242.092.184.183.479.228l.187.029c-.057-.299-1.076-.958-1.296-1.282zM85.39 7.075c-.768-.172-.982-1.139-1.418-1.449l.109.268-.007.101-.009.515c-.296-.222-.891-1.166-1.219-1.515-.419-.447-.811-1.127-1.315-1.504.002.013.611 1.109.682 1.228.141.235.402 1.134.369 1.46.843.52.478.792.901 1.237.141.149.432.227.672.487.213.23.351.334.478.602-.488-.172-.985-.5-1.407-.749-.302-.178-1.156-.863-1.24-.896.12.793 1.811 2.124 2.241 2.82-.737-.127-1.093-.963-1.489-1.26.072.479.429.853.635 1.261l-.832-.724c.072.378.559.667.761.994-.286-.109-1.048-.656-1.093-.89l-.125-.019c-.016.597 1.166 1.532 1.224 1.838-1.115-.638-1.263-.82-1.892-1.768-.287-.433-1.429-1.532-2.111-1.684.381.36.644.457 1.042.92.254.295.53.781.73 1.106.693 1.129.528 1.229 1.834 2.035l.125.019.249.038.122.011.403-.028-.555.734-.013.101-.052.404c-.018.142.015.098.105.171.071-.451.397-.65.797-.754l.125.019.062.01.123.022.201.088-.327.406-.013.101-.013.101-.027.106.329.508.059-.455c.023-.18.083-.4.302-.366.416.064 1.297 1.524 2.136 1.669-.159-.257-.354-.407-.345-.775.486.084 1.475.694 1.707.944.29.313.629 1.14.56 1.673l-.072.556c.23-.083.343-.226.439-.448.253.096.129.043.223.241l-.013.101-.02.152c-.024.183-.164.542-.383.508l-.187-.029c-.298-.046-.601-.168-.79-.276.056.295.353.446.62.611l.125.031.567.024c-.061.39-.193.215-.315.467l.187.029c.295.045.795-.184 1.049-.251-.067.284-.422.524-.603.732.456-.015 1.093-.437 1.246-.788.342.059.349.149.535.288-.018-.118-.047-.126-.03-.262.025-.197-.084-.336-.053-.575.002-.018.755-.434.823-.956l.046-.354c-.276.192-.648.828-1.115.756-.357-.055-.399-.827-.435-1.141-.022-.191-.077-.435-.165-.602-.048-.09-.323-.459-.316-.512.021-.164.251-.374.489-.337.48.074.455.229.709.418.054-.53-.421-.754-.824-1.003l-.125-.019-.25-.05-.692-.043.02-.152c.017-.13-.435-.664-.525-.854l.249.038c.216.133.507.336.84.387l.125.019c.224.035.336-.206.469-.185.334.051.416.167.797.226l-.046.354c-.04.313.183.727.405.886l-.021-.414c-.014-.185.089-.241.121-.445.12-.044.123-.084.262-.063l.125.019c.316.195.736.349.801.69.351.03.493-.13.961-.058.137.021.152.299.135.433l-.052.404c-.022.174-.072.189-.108.344.269-.11.671-.764.718-1.127l.013-.101c.112-.129.279-.318.544-.277.165.025.212.326.19.493l-.046.354c.233-.031.29-.277.321-.518l.065-.505c.338.254.411.441.62.611.044-.436-.251-.685-.443-.996l.249.038c.265.164.519.595.558.601.087.013.134-.05.144-.133l.013-.101c-.135-.284-.435-.657-.788-.791.35-.292.913-.178 1.023-1.028l.02-.152c.121-.937-.34-1.08-1.014-1.496l-.125-.019-.374-.058c-.865-.133-1.498.13-2.352-.001l-.311-.048c-.509-.078-.609-.912-.68-1.322-.057-.33-.072-.468-.355-.676-.127-.093-.715-.313-.956-.343l-1.514-.055-.249-.038-.125-.019c-.469-.29-.699-.484-1.106-.789.065.342.558.756.892.962l.125.019.373.072 1.69.194c.386.043.523.224.715.368l-.013.101c-.031.236.053.077.023.313-.1.771.304 1.387 1.263 1.535l.374.057c.669.103 1.779-.072 2.1 0l.55.15.125.019c.183.113.532.308.502.541l-.072.556-.013.101c-.147.169-.358.453-.633.47l.026-.202c.025-.193-.117-.449-.246-.553l-.052.404-.003.108-.223.166c.012-.442-.397-.989-1.004-1.082l-.187-.029-.125-.019c-.362.095-.723.507-.951.472l-.81-.125-.129-.027-.458.143c-.103-.167-.579-.553-.876-.599l-.187-.029c.091-.386.418-.28.446-.498l.052-.404c.031-.239-.027-.505-.24-.604-.034.266-.047.384-.364.356-.041-.217-.346-.311-.653-.358l-.062-.01c-.556-.086-.69-.541-.929-.847-.31-.396-.874-.336-1.136-.771-.255-.423-.97-1.897-1.4-2.06.139.292.295.667.243 1.069l-.046.354c-.268-.201-1.429-1.57-1.768-1.935-.261-.281-1.694-1.792-1.934-1.883.481.779 2.282 3 2.16 3.941h0zM66.755 6.68l.249.038c1.718.265 2.657-.976 3.354-1.855l-.498-.077c-.383-.059-.902-.292-1.151-.435-.046.292-.674 1.032-.882 1.237L66.755 6.68zm7.506-3.484l-.125-.019-.685-.106-.125-.019c-.381.439-1.113 1.165-1.921 1.096.231.374 1.366 1.293 2.044 1.397l.793.123-.221 2.337-.027.253-.009.515c.601-.157 1.345-.772 2.243-.634.143.022.07.028.232.084l.093-.137.012-.101.405-1.442.458-.796c-.365-.591-1.44-2.548-1.422-3.261-.254.092-.411.284-.77.437-.442.189-.524.156-.975.274zm3.733 2.585c-.004.033-.424.671-.492.794-.156.279-.263.579-.377.927l-.232.893.748.115c1.245.192 2.646.97 3.435 1.457-.044-.29-.617-1.209-.811-1.477-.314-.432-1.178-1.015-1.319-1.222l.312.048c.817.126 1.157.585 1.616.952.499.399.813 1.008 1.146 1.278.006-.241-.092-.269-.059-.525l.007-.051c.025-.193-.017-.021.084-.144l.346.261.038-.302.3.147c-.049-.323-.272-.903-.443-1.183-.165-.268-.572-.799-.529-1.132l-.002-.093-1.632-2.014c-.241.008-.403.041-.699-.004l-.062-.01c-.829-.128-1.912-1.275-1.992-1.802-.272.017-.122.084-.325.053l-.126-.018-.471-.28c-.078.773 1.543 3.305 1.54 3.33h0zm-3.357 3.35c.397.089.376.253.653.358a2.49 2.49 0 0 1 .382-.509c.143-.148.426-.266.559-.377-.515-.079-1.467.266-1.594.528zm-.941.886l-.02.152c.492.11.821.409 1.114.632l.093-.137.008-.102.165-.747c.052-.212-.517-.492-.82-.539-.351-.054-.5.429-.541.742zM69.287 6.76l-.007.051c-.068.524-.523 1.689-.767 1.996.019.124.043.159.023.313l-.084.762-.161.644c.565-.147.933-.463 1.386-.752.422-.27.761-.767 1.132-1.025-.02.749 1.15 3.125 1.789 3.369l.026-.202c.072-.555.262-1.008.43-1.437l.582-1.347-.019-.98.069-1.123.071-.918c.007-.118-.017-.157-.167-.18l-.374-.058c-.549-.085-.879-.26-1.231-.481-.29-.182-.744-.664-.901-.724-.047.201-.66.928-.824 1.128l-.445.499c-.129.147-.516.373-.528.468zm-2.049.612l-.125-.019c-.3.346-.645 1.054-.721 1.642l-.195 1.313.006 1.133-.018.103.11.169c.153-.647.779-1.645 1.098-2.156.222-.355 1.187-1.756 1.228-2.074l.046-.354c-.379-.033-.818.338-1.43.244zm5.876 4.204l-.089.505.051.778a1.96 1.96 0 0 1 1.03-.099l.12.026.365.151.065-.505c.065-.499-.138-1.723-.657-1.802l-.062-.01-.125-.019c-.43.112-.634.476-.698.975zm.139 1.877l-.013.101-.026.202c-.082.631.247 1.505.513 1.935.349-.127.336-.217.807-.34l.124.019.312.048.131.013.404.276c.1-.77-.743-2.434-1.638-2.572l-.125-.019c-.377.098-.269.085-.489.337zm-5.094-2.383l-.013.101-.183 1.415c-.014.11.312.421.409.597.126.229.135.51.245.741l-.007.101-.009.515-.085.657c.392.149.749 1.266.739 1.66.315-.219 1.376-1.848 1.567-2.285l.125.019c.081.423 1.712 1.243 2.493 1.363-.203-.427-.746-2.097-.677-2.63.022-.174-.021-.203-.017-.363-.451-.172-1.15-1.136-1.38-1.512-.416-.679-.593-1.063-.721-1.904-.193.134-.304.345-.487.512l-.543.452c-.415.295-.913.419-1.456.561zm-1.597 1.043l-.121.445c-.104.341.008.924-.032 1.232-.06.466.124 1.274.458 1.516l.367-1.388.466-2.249.097-.655.207-1.206c-.411.286-1.253 1.686-1.442 2.304zm1.039 2.43c-.113.408-.353.62-.391.918l-.085.657-.011.101.09.272.873.134c.352.054.328.154.735.216.078-.601-.552-1.135-.535-1.268.031-.241-.042-.168-.017-.364.04-.311-.247-1.801-.358-1.961l-.3 1.294zm6.392 1.55l1.677 2.269c.509-.185.958-.545 1.663-.569-.111-.584-1.23-1.633-2.185-1.78-.548-.084-.779-.018-1.154.08zm-4.232.901l1.017.142-.147-.571.19-.032.125.019.187.029.125.019c.739.457 1.106.764 1.653 1.35l.664.771c.146.184.47.69.621.805l.025-.769.033-.253c.249.187 1.298 1.798 1.418 1.816.097.015.644-.2.794-.239l.013-.101.02-.152c.016-.12-2.645-3.191-2.825-3.219-.983-.151-2.443-.781-2.556-1.373l-.085.002-1.27 1.754zm6.299 1.789c.374.28.669.577.979.911l.944.932c.162-.334.969-.469 1.574-.376l.499.077c-.088-.585-1.23-1.736-2.11-1.872l-.374-.058c-.615-.095-1.229.128-1.512.386zm2.339 2.062c-.006.234.331.428.511.582l.592.534c.408.324.789.869 1.148 1.137.289-.333.753-.748 1.42-.658-.084-.553-1.283-1.435-2.087-1.559l-.748-.115c-.401-.062-.515.066-.836.077zm-2.794-.018c-.005.171.019.162.003.362l-.038 1.385-.17 1.314c-.059.454-.298.887-.531 1.156.195.316.604.921.66 1.287.081-.023.073-.04.194-.022l.187.029c.859.132 1.137.949 1.608 1.33l.309-2.273.06-1.073c.482.065 1.001-.06 1.312-.199.138-.061.884-.56.895-.647.011-.081-1.331-1.351-1.503-1.533l-1.529-1.563c-.137-.021-1.225.386-1.456.446zm5.449 2.592c-.033.258 1.506 1.779 1.611 1.795.029.005 1.237-.48 2.017-.36.102.016.191-.002.2-.072.038-.294-1.841-1.727-2.372-1.809-.347-.053-1.433.27-1.456.446zm5.668 2.368c.625.22.659 1.132.87 1.629.081-.023.073-.04.194-.022.454.07.699.195 1.04.315.131-.301.251-.467.305-.881l.013-.101c.093-.718-.348-2.742-.674-3.145-.061.469.153.779.079 1.353l-.085.657c-.214-.161-.21-.291-.315-.512l.013-.101c.117-.907-.263-1.689-.774-2.246-.321-.349-1.786-1.02-2.318-1.374-.918-.612-1.111-.884-1.702-1.694-.36-.494-.932-1.528-.838-2.254l.007-.214-.126.145-.013.101-.039.303c-.095.732.694 2.005.595 2.772-.445-.334-1.255-2.429-1.533-3.054-.265-.595-.441-.989-1.118-1.341-.322-.167-1.642-.751-2.015-.808l-.125-.019c-.631-.39-.721-.584-1.111-1.112-.29-.393-.494-1.041-.733-1.337-.011.405.462 1.647.656 1.99.544.962.765.756 1.888 1.257.931.416 1.433.543 1.828 1.293.302.573.562 1.328.83 1.933.241.544.645 1.301 1.061 1.749.556.598 1.125.794 1.965 1.211.217.108.827.459.979.584.45.37.359.421.658.822.336.451.627 1.416.538 2.106zm-3.46-.275c.192.31.68.679.967 1.011.174.203.729 1.01.923 1.084.144-.298.924-.425 1.443-.345l.623.096c-.126-.664-1.313-1.8-2.352-1.96l-.125-.019c-.666-.103-1.011.117-1.479.133zm-5.048-.777c.019.127.027.117.035.263l-.004.515-.074 1.02-.196 1.516c-.018.137-.048.135-.095.243.709.249.959.507 1.292 1.005l.822 1.331c.075-.319.571-.973.619-1.348l.005-.103.23-.737.046-.354c1.169-.04 1.953-.787 2.541-1.465-.122-.198-2.851-2.862-2.871-2.865-.065-.01-.935 1.17-2.351.978zm-4.942 1.353c.037.195.982.92 1.201 1.152.197.208.404.34.594.58l.499.683c.094-.726-.465-2.628-1.094-2.849-.129.267-.76.494-1.2.434zm13.388 1.645l-.124-.014-.912.169c.044.231.752.897.945 1.165l.913 1.183c.012.002.368-.244.523-.3.249-.09.438-.12.684-.184l.125.025.567.03c.197.006.237.083.492.127-.105-.692-1.313-1.955-2.395-2.122l-.187-.043-.63-.036zm-10.668 1.404c.301.106.986.705 1.198.92l.538.52c.19.204.265.407.416.593l.02-.152c.056-.432-.434-1.891-.598-2.257-.21-.47-.856-1.627-1.555-1.735l-.187-.029c-.016.618.269 1.36.168 2.14zm11.998 1.59c-.007.052 1.277 1.84 1.359 2.271l.125.019c.112-.231.478-.231.738-.299l.125.014.63.05.315.037.676.167c-.36-.758-1.438-2.335-2.661-2.523l-.187-.029c-.338-.052-1.1.153-1.118.292zm4.711 2.891c.345.558.658 1.022.932 1.639.154.346.573 1.464.519 1.884-.024.184.04.129.017.363.241.195.495.798.486 1.157.244.054.603.251.577.45l-.057.302-.017.769c-.01.411.185.568.332.876l-.013.101-.066.768-.464 1.367c.348-.242 1.061-1.326 1.134-1.887l.013-.101c.035-.274-.065-.413-.177-.594.205-.084.431-.381.465-.65l.007-.05.013-.101c-.174-.365-.357-.683-.292-1.179l.091-.812.135-.442c-1.196-.206-1.538-1.355-1.89-2.095l.013-.101c.054-.417.63-.966.967-1.088.566.199.909.206 1.049.682.114.387.139.772.306 1.124l.125.019c.345.053.365-.36.649-.461l-.173.225-.013.101c-.038.295.175 1.13.18 1.523l.024.828-.034.355-.007.628.199-.237.01-.102.17-.798c.047-.199.002-.376.032-.614l.061-.819-.058-1.294.036-.151-.076-1.505c-.971-.149-1.084-.354-1.411-.887-.145-.237-.68-1.078-.722-1.297l-.125-.019c-.078.332-.852 1.24-1.082 1.483-.433.458-.863.795-1.862.642zm-14.094-2.583l-.015.101.012.414.249.038c.09.133.496.534.679.763l.64.832c.051-.506-.488-1.946-.687-2.391-.342-.769-.776-1.433-1.483-1.964.039.258.504 1.995.605 2.207zm2.878-2.598l-.312-.048-.081.815-.242.84-.391.916 1.021 1.446c.175-.006.266-.062.387-.043.432.067 1.388 1.754 1.378 2.12l.733.111.13-.39.22-.688.163-.8.091-.708.249.038c1.147.177 2.224-.265 2.544-1-.451-.73-1.129-1.431-1.68-2.127-.558-.703-1.16-1.471-1.913-2.035-.26.597-1.447 1.685-2.298 1.553zm-.913 4.602c-.025.195.048.123.017.364l-.013.101c.672.415.874 1.162 1.306 1.696.035-.34-.378-1.754-.485-2.091-.16-.505-.566-1.555-1.114-1.764-.012.44.373 1.046.289 1.694zm8.986.301c-.008.314.505 1.259.622 1.636.133.431.55 1.211.537 1.687.335-.122.613-.37 1.181-.282l.374.058c.499.077 1.108.452 1.512.594-.178-1.173-1.133-3.474-2.698-3.715l-.312-.048c-.525-.081-.815.057-1.217.07zm-16.5-.685c-.087.675.987 1.596 1.749 1.713l.187.029c.054-.534-.296-.98-.608-1.318-.196-.213-.973-.872-1.256-.98l-.072.556zm9.243 2.248l-.013.101-.039.303-.013.101c.58.358.703 1.161 1.063 1.607l.046-.354c.155-1.201-.644-3.029-1.438-3.624-.04.313.282 1.628.394 1.865zm-7.095-1.66c-.116.898.956 2.708 1.728 2.996l-.014-.516c-.004-.237-.08-.367-.059-.525l.013-.101c-.272-.573-.02-.628-.559-1.207-.268-.288-.701-.756-1.138-.91.018.118.047.126.03.262zM64.679 8.474l.01.414c.009.133-.3 1.04-.343 1.237l-.685 2.781-.148 1.009.001.618c-.016.936.603 2.297 1.167 2.899.449.48.646.675 1.288 1.053.219.129 1.644.724 1.627.852-.011.082-.186.092-.269.113l-.125-.019-.374-.058c-1.043-.161-1.511-.721-2.077-1.145.114.753 1.666 2.009 2.831 2.189l.748.115c-.126.288-.562.494-.79.703l.249.038c.602.093.81-.244 1.194-.383.142.05.178.079.367.108l.125.019c.38-.099.344-.223.613-.433.255-.199.424-.2.751-.285l.125.019.499.077.125.019c.571.352.927.697 1.196 1.249.238.488.474 1.074.39 1.728l-.078.607c-.025.193.017.021-.082.142-.142-.115-.366-1.413-.498-1.71-.311-.698-.578-.865-1.274-1.295l-.125-.019-.125-.019c-1.364-.21-1.803 1.114-3.791.808l-.436-.067-.124-.019c-.436-.269-.564-.378-.875-.739-.176-.204-.469-.809-.693-.894l-.046.354c-.063.49.129.663.119 1.049-.699-.266-1.029-2.13-1.402-2.433l-.058.252.039.728.253 1.633c-.526-.118-.649-.705-1.017-.982-.062.608.61 1.545.886 1.992-.364-.081-.593-.235-.84-.387-.048.475.736.748 1.056 1.285.133.224.247.477.358.72.135.294.313.467.46.706l.125.019c.809.125 1.285 1.076 1.59 1.574l1.147 1.837c-.011.084-.304.12-.4.145l-.125-.019-.187-.029c.229.336 1.368.726 1.329 1.029l-.033.253c-.076.585.181 1.06.109 1.615l-.02.152-.013.101c-.098.113-.173.231-.407.195l-.125-.019c-.414-.256-.418-.462-.691-.671l.133 1.049c-.311-.252-1.331-1.998-1.27-2.464l-.062-.01-.02.152c-.081.629.276 1.489.445 2.022l.319.977c.134.527.414.399.861.654.169-.061.376-.251.538-.227l.125.019c.288.178.299.223.522.39.272-.342.534-.983.778-1.408.126-.22.823-1.181 1.015-1.152.279.043.617 1.62.568 1.995l-.013.101c-.047.366-.245.557-.36.821.255-.093.318-.145.656-.157.192.119.294.145.335.361l-.499-.077c-.15-.023-.194.054-.331.104l-.013.101c-.025.19-.32.748-.429.863-.266.279-.583.378-.771.551.358-.012 1.243-.274 1.562-.389.583-.211.825-.359 1.195-.785-.137-.289-.151-.427-.153-.797l.018-.616c0-.445.257-1.007.321-1.497.033-.252-1.556-1.242-1.421-2.281.047-.36 1.484-.699 2.04-.61l.679 1.699c.052-.402.287-1.032.545-1.204l-.23.737-.021.05.018.465c.248.201.305.537.332.876l.033.727c.013.17.039.191.017.364-.018.142.015.098.105.171.053-.338.258-.519.311-.932l.134-.908.047-.718-.067-1.041-.162-.896-.997-.154-.125-.019c-.149-.314-1.167-1.596-1.562-1.684-.066.28-.73 1.009-.958 1.155-.392.251-.922.617-1.609.512l-.312-.048c-.845-.13-2.025-4.118-2.154-4.971.44.272 1.043 1.156.988 1.699l.623.096c1.037.16 1.594.469 2.172.901.197.017.228-.016.443.017l.062.01c.877.135 2.08-.279 2.499-.646.468-.411.386-.292.713-.901.154-.287.349-.927.397-1.299l.085-.657c.118-.909-.133-2.428-.706-2.893-.009.354.219.939.203 1.372l-.048.869-.02.152-.062-.01c.02-.156-.332-1.224-.407-1.437a5.14 5.14 0 0 0-.656-1.337c-.267-.399-1.818-1.902-2.314-2.076.286.463 1.089 1.253 1.168 1.778-.209-.157-.387-.348-.632-.51s-.526-.276-.772-.428l-.125-.019-1.371-.211c-.655-.101-1.247-.315-1.819-.505-.709-.235-.95-.405-1.267-.88a6.32 6.32 0 0 1-.671-1.188c-.1-.224-.406-1.335-.437-1.373l-.046.354c-.075.582.107 1.237.264 1.709.081.243.172.557.293.759.076.126.347.612.366.715-.599-.211-1.112-1.01-1.387-1.461-.36-.59-.536-1.175-.536-1.978l.048-1.231.048-.509.48-2.09.179-.901c.155-.706-.379-2.37-.719-2.792-.007.256.209.745.24 1.07l.108 1.149h0zm-.151 26.732l.187.029c1.309.202 2.627-.436 2.846-1.366l-.498-.077c-.412-.063-.425-.342-.633-.51-.377.864-1.26 1.338-1.901 1.924zm19.229 1.209l-.036.768-.065.505-.013.101c.245.515.319 1.467.224 2.2.31-.042.462-.627.505-.953l.065-.505c.104-.805-.184-3.089-.779-3.316.073.483.129.585.099 1.201zm1.458-3.9l-.249-.038-.157 1.213c-.066.509-.327 1.265-.583 1.56.426.345.481 1.741.526 2.394l.145 1.267.09.6c.066.218.17.366.202.58.756.102 1.755-1.286 1.839-1.934l.033-.253c.206.096.429.521.623.703.285.266.538.355.866.558l.125.019.561.086c.558.086 1.322-.102 1.567-.326-.11-.23-.416-1.627-.47-1.96-.096-.59-.373-1.384-.571-1.947-.217-.614-.406-1.279-.695-1.826-.139-.262-.846-1.573-1.127-1.616-.096-.015-1.128 1.167-2.725.921zm-6.229 5.897c.014-.517-.228-2.237-.442-2.583-.307-.498-1.169-1.501-1.653-1.863.048.315.232.84.329 1.204l.303 1.266c.154.393 1.123 1.722 1.463 1.976zm-6.154-3.525l-.026.202-.013.101c-.208.24-.186.275-.487.454-.107.063-.622.258-.627.303-.007.051.249.223.325.32.091.115.162.261.22.383l-.013.101-.114 1.014-.242 1.251-.013.101c.563.348 1.117.646 1.594 1.058.294.254 1.088 1.003 1.149 1.323l.125.019c.128-.809.554-1.714 1.042-2.159-.262-.552-.327-1.04-.44-1.698-.065-.379-.293-1.48-.25-1.811l.007-.051c.024-.188-.126-.502-.096-.736.023-.174-.021-.203-.022-.378l-.319.068-.125-.019-.125-.019c-.55-.085-.739-.377-1.026-.603-.32-.252-.48-.675-.693-.847.068.448.234 1.138.171 1.624zm7.618 4.988l.029-.717c.011-.795.052-.979-.317-1.584-.159-.26-.745-1.019-.977-1.192-.05.388.251 1.495.326 1.906.083.447.596 1.332.938 1.588zm-15.046-4.07c-.154-.024-.442.007-.635.007-.332-.001-.302.066-.428.287l-.512.888c-.331.573-.78 1.191-1.031 1.768 1.361-.046 2.879-1.619 3.049-2.933-.197-.017-.228.017-.443-.017zM92 37.058c-.438-.023-.636.042-.954.015-.006.209.264.885.33 1.204.052.254.2 1.088.173 1.297l-.007.05c-.015.116.045.333.041.524l.031.727.035.879-.034.757.551.148c.298.084.428.014.692.055l.125.019c.572-.149.733-.099 1.186-.449.301-.232.484-.668.545-1.14l.037-.15-.008-.567c.001-.577-.254-1.48-.467-1.962-.193-.438-.878-1.295-1.585-1.358L92 37.058zm-23.425-2.672c-.358-.055-.253-.181-.535-.288-.181.415-1.213 1.571-1.668 1.599-.048.204-.077.103-.102.294l-.007.05c-.091.701-1.231 2.179-1.668 2.578l.187.029c1.267.195 1.613-.454 2.036-.511-.047.364.192 1.461.258 1.853s.245 1.541.62 1.684c.124-.958.549-1.461 1.106-1.975.358-.33 1.519-.972 2.186-.869l.423.064.315-1.342.043-.201-.014-.516.013-.101c-.078-.164-.324-.72-.538-.753-.011-.002-1.233.147-1.292.162l-.125-.019-.499-.077c.192-.175.418-.248.653-.448.286-.242.314-.272.556-.552l.013-.101.007-.206.297-1.655c.056-.307-.13-1.257-.342-1.29-.103-.016-.511.444-.571.537-.184.288-.232.438-.352.773-.135.375-.593 1.344-1.002 1.281zm12.337 4.374c-.127.985.308 2.419 1.507 2.603l.124.017.31-.06.173-.225.013-.101.007-.05c.024-.183-.857-1.011-1.036-1.204l-1.064-1.233-.033.253zm3.726.677c-.079.609-1.413 1.923-1.822 2.297l.312.048.125.019c.772-.201 1.165-.484 1.382-1.281l.125-.548.085-.657c-.143.009-.188-.017-.207.123zm-14.798.402l1.053.214.062.01c.15.023.916-.374 1.013-.463-.193-.043-.215-.085-.43-.118l-.81-.125-.125-.019c-.479.125-.567.049-.764.501zm22.51 3.363l-.554-.137c.018.118.047.126.03.262l.005.158-.273.935-.329 1.085c-.075.35-.343.677-.388 1.022l.499.077c1.435.221 2.551-1.15 2.839-2.243l.269-1.145.059-.455c-.181.011-.62.272-.956.351-.25.059-.842.19-1.198.09zm-29.886-3.829l-.258 1.2-.432 1.684c1.008-.366 2.26-1.749 2.426-3.029l.065-.505c-.117.016-.664.301-.827.375-.172.078-.774.269-.973.276zm5.95 2.154l-.007.05c-.027.207.447.378.709.419l.062.01c.371.057.481-.023.823.024.205-.425.777-.755.888-1.461l-.561-.086c-.311-.048-.67-.363-.889-.498-.34.391-.944.911-1.026 1.543zm16.791-1.074c-.183.779-.996 1.905-1.839 1.933-.011.417.634 1.125.949 1.395.492.421 1.018.703 1.594 1.058l-.013.101-.058.252.045.829c.033.665.226 1.343.478 1.909.136.305.774 1.532 1.105 1.583.135.021 1.09-.778 1.223-.928.368-.418.688-.753.974-1.254.458-.801 1.089-2.091 1.235-3.219l.209-1.617a8.55 8.55 0 0 0 .062-1.53c-.036-.526-.199-.911-.263-1.337-.232.014-.341.139-.549.214-.221.079-.421.111-.644.169l-.125-.019-.686-.106c-.693-.107-1.262-.706-1.716-.986-.1.776-1.127 1.667-1.98 1.551zm6.49 6.825l-.124-.019-.249-.038c-.453-.07-.532-.214-.853-.286-.278.637-1.226 1.644-1.678 2.165.22.165.293.303.715.368l.062.01c1.219.188 3.318-1.785 3.472-2.765-.27.017-.426.187-.627.304-.182.106-.502.206-.718.263zM75.46 35.704l-.007.051c-.042.325.017.562.057.852l.108.823-.013.101c.128.269.162.698.257 1.014.045.15.381.934.374.991 0 .001-.599.686-.72.952-.153.338-.409.896-.46 1.289l-.02.152c-.033.257 3.694 3.993 3.761 4.342l.116.017.231-.737c.215-.66.508-1.153.908-1.613-.193-.406-.4-.936-.514-1.374l-.212-.714c-.069-.302-.054-.528-.175-.782l.013-.101c.006-.044-.087-.804-.106-.963-.033-.274.012-.761.05-1.056l.013-.101c-.826-.51-1.815-1.2-1.952-2.105l-.249-.038c-.56-.086-1.22-.986-1.483-1.311-.006.211.048.123.023.313zm-7.781 6.892l-.145 1.119.058.727-.013.101c.105.078.096.118.236.139l.374.058c.532.082 1.154-.05 1.374-.304l.013-.101c.031-.236.071-.058.102-.294l.031-.201.225-.791c.047-.15.086-.173.108-.344.018-.136.048-.135.095-.249l-.567-.03-.81-.125c-.435-.067-.483-.255-.857-.34l-.223.634zm-5.922.277l-.045.767-.079 1.173-.034.355-.028.615c.531-.217 1.615-2.166 1.72-2.983.051-.394.024-.815-.112-1.1-.083.034-1.423 1.163-1.423 1.173zm3.265-3.621l-.249-.038c-.238-.037-.025.012-.169-.074l-.093.137-.013.101-.007.051c-.036.276-.161.261-.196.537-.026.197-.166.297-.197.537l-.007.051c-.005.039-.341.919-.372 1.024l.012.777-.022.411-.479 1.986c-.038.156.217.856.269 1.053.073.275.151.893.348 1.053.094-.217.976-1.405 1.144-1.474.237.5 1.477 1.619 2.316 1.749.226.035.353.011.512-.024-.052-.341-.261-.79-.353-1.143-.077-.295-.191-.943-.301-1.174l-.001-.101-.088-1.665.015-.31.24-.681c-.5-.809-1.015-1.984-.861-3.174-.447.162-.728.507-1.449.395h0zm3.171 5.953l-.436-.067c-.066.652.548 2.198 1.165 2.293.452.07 1.431-.254 1.462-.497.006-.043-.353-.727-.417-.872-.12-.27-.252-.702-.295-.991-.365.095-.957.213-1.479.133zm19.225 5.177c.405.055 1.606-.131 1.643-.417.04-.311-.122-.474-.364-.623l-.125-.019-.062-.01c-.264-.041-.994.845-1.092 1.069zm-6.867-6.367c-.029.221-.96 1.035-1.098 2.099l-.039.303c-.092.71.765 1.485 1.194 1.95.296.321.589.505.973.774.445.313.813.385 1.213.632l.125.019c.257.04.379.162.735.216l.686.105c.524.081 2.671-.009 2.702-.254.001-.008-.511-.771-.573-.872-.18-.292-.328-.633-.464-.937-.222-.494-.488-1.52-.495-2.138l.019-.565.033-.253-.249-.038c-.726-.112-1.382-.741-1.715-1.126-.192-.222-.328-.534-.428-.819l-.148-.425c-.043-.197.038-.399-.207-.437-.594-.092-1.458-.876-1.821-1.157-.513-.398-.956-1.064-1.408-1.402-.077.592.116 1.762.255 2.275l.259 1.059c.045.164.454.975.452.991zm-11.016 3.909c.416.261.942.726 1.57.823l.187.029c.296.045.457.013.699.005l.013-.101c-.313-.12-1.341-1.243-1.388-1.554l-.105-.003-.975.802zm17.979 3.195c-.021.167 1.115 1.46 1.145 1.465.123.019.18-.178.4-.145l.062.01c.168.026.169.051.305.099-.271-.438-1.081-1.223-1.581-1.532l-.125-.019c-.144-.022-.192.006-.207.123zm-25.551-4.914c-.012.093.245 1.138.292 1.366.055.27.268 1.186.241 1.396l.049.006.135-.442.013-.101c.031-.243.196-.511.294-.72.037-.079.115-.225.181-.323.079-.116.257-.196.262-.235.022-.174-.174-.903-.213-1.133-.058-.344-.119-.849-.467-.982-.106.242-.783 1.136-.787 1.168zm26.964 6.784c.254.534.573 1.068.668 1.698l.436.067c.195.03.349.148.479.228.085-.659-.5-1.696-1.011-2.012l-.125-.019-.062-.01-.126-.022-.259.069zm-9.802-1.873c.135.219.542 1.011.535 1.268l.498.077c.263.041.391.213.654.306l.113-.343c.812.181 1.744 1.361 2.155 1.518l.039-.303c.059-.455-.109-1.143-.253-1.483.654-.171 1.551-.69 1.649-1.447l-.623-.096a6.75 6.75 0 0 1-1.992-.635c-.263-.13-.526-.303-.727-.454-.274-.205-.404-.393-.627-.561-.102.791-.991 1.656-1.422 2.152zm.608-2.216l-2.839-.19c-.062.394-.397.933-.558 1.299-.093.211-.703 1.077-.716 1.186-.011.084.402.993.391 1.401.302.068.464.226.728.267.215.033.418-.554 1.138-.443l1.246.192c.011-.408-.447-1.455-.427-1.612.002-.014.35-.34.414-.417.169-.204.214-.323.352-.542.158-.251.535-.818.587-1.154l-.316.015zm-.443 3.891c.243.394.65.847 1.268 1.014l.552.143c-.072-.477-.633-.825-1.066-1.092l-.125-.019-.187-.029c-.214-.033-.247-.003-.443-.017zm-5.882-3.174l-.374-.058c-.075.474-1.214 1.307-1.698 1.337.162.341.23.683.245 1.12l-.008.979.249.038c.114.017 1.07-.454 1.886-.328l.561.086c.282.043.139.202.335.361.125-.259.655-.501 1.02-.513l.02-.152c.058-.45-.53-1.306-.529-1.319s.569-.922.656-1.078c.113-.203.493-.978.53-1.214-.603.219-2.045.871-2.892.74zm3.734 3.565c-.008.059.702.597.815.682.376.281.59.382.986.627l.125.019.125.019c.538.083.88-.163 1.131-.393-.143.005-.15.028-.318.002l-.062-.01c-.039-.006-1.347-1.114-1.614-1.28l-.125-.019-.062-.01-.125-.019c-.177.046-.856.232-.875.381zm5.55 2.298c-.076-.5-.207-1.094-.377-1.549-.047-.126-1.023-1-1.192-1.064.287.603.902 2.359 1.569 2.613zm-18.337-8.598c.353.218.461.212.567.596.05.181.164.632.136.853l-.007.051c-.028.213.093.261.059.525-.032.251.078 1.361.12 1.702l.278 1.607c.562-.23 1.948-2.285 2.052-3.086l-.005-.054.139-.493c.863.133 1.451.621 1.751 1.105.263.425.164 1.493.139 2.124l-.087 1.018-.118.91c.453-.185.797-1.043 1.913-.893l-.008-.567.004-.1-.424-1.563c.438-.027 1.567-.686 1.672-1.134a1.78 1.78 0 0 1-.636.005l-.249-.038c-1.524-.235-3.004-1.138-3.425-2.022-.333.011-.548.122-.898.068l-.129-.006-.613-.16-.125-.019c-.46-.284-1.459-.866-1.545-1.321-.222.091-.386.692-.56.893zm10.652 6.589c.727.256 1.517 1.232 2.142 1.619l.125.019.062.01.125.019c.328-.086.97-.151 1.187-.333-.193-.043-.215-.085-.43-.118l-.125-.019c-.679-.419-1.028-1.024-1.719-1.45l-.125-.019-.374-.058-.125-.019c-.292.076-.62.093-.744.349zm-7.773.09l.561.14c.267.075.147.153.353.311l-.009-.516.007-.051c.042-.325-.207-.471-.543-.542l-.369.657zm5.073-.351c.217.35 1.78 1.718 2.372 1.809l1.371.211c-.075-.394-1.745-1.807-2.208-2.093l-.125-.019-.249-.038c-.43-.066-.794.118-1.161.131zm12.77-2.416c-.127.291-.505.711-.733.937l-.418.414c-.171.146-.364.197-.531.349.044.294.175.61.132.948l-.085.657c.958.337 1.448 1.58 1.313 2.625l.001.105-.161.644c.79-.048 1.97-1.648 2.098-2.461.289.11 1.172.883 1.447 1.099l.67.581.639.6.083-.504-.008-.567c.002-1.092-.619-2.174-1.005-3.042-.147-.331-1.578-2.563-1.825-2.601-.264-.041-1.263.203-1.617.215h0zm-22.072-.358l-.033.253c-.047.367.051 1.008.099 1.388.039.31.213 1.118.185 1.337l-.018.103.085.164.666-2.989.078-.607c.044-.344-.274-.832-.505-1.006-.186.427-.487.814-.557 1.358zm6.709 3.662c.349.262 1.247 1.017 1.765 1.097l.187.029c.557.086 1.398-.217 1.866-.177-.059-.308-1.668-1.546-2.205-1.628l-.062-.01-.125-.019c-.554.145-1.057.37-1.426.708zm20.303 3.23l-.072.556.187.029c.527.081.552.283.818.486l.143-.544.023-.049.012-.719c.018-.451-.025-.62-.06-.991-.044-.471-.085-.498-.479-.742l-.125-.019-.128-.008-.551-.148c-.008.306.155.675.178 1.014l.053 1.135zm-6.773-1.198l-.055.919-.026.202c.364-.049.675-.794.724-1.177l.033-.253c.095-.733-.538-1.324-1.05-1.708.045.295.192.596.256.968.058.337.135.667.119 1.049zm-14.172-.997l.506.038.567.024-.01-.084-.958-.787-.105.809zm-2.217-.548c-.012.095.96.444 1.145.486l.078-.607c.015-.116-.024-.158-.167-.18-.254-.039-.562-.221-.853-.286-.041.263-.17.332-.203.587zm5.494 1.258l.806.164.925.206c-.052-.341-.263-.632-.663-.772-.422.014-.983.038-1.069.402zm2.5.477l.104.027.997.154c-.18-.291-.523-.802-1.03-.88l-.062-.01c-.256-.039-.283-.141-.615-.195l.606.904zm8.254 1.386l.309.098.039.162c.383.033.657-.383.839-.593l.013-.101.073-.454.008-.668-.062-.01c-.052.398-.95 1.319-1.219 1.565zm-14.715-6.133l-.065.505c-.039.303.159.819.145 1.26l-.035 1.334-.131 1.011c.289-.201.466-.904.564-1.356l.193-1.053.156-.908-.085-1.607c-.404-.035-.697.472-.741.814zm9.825 6.101c-.051-.269-.447-.847-.594-1.14-.234-.468-.522-.604-1.191-.786l-.555-.135c.129.209.296.323.458.567l.453.617c.086.112.55.304.726.408.232.137.465.379.702.469zm-7.068-.882c.272-.017.122-.084.325-.053l.062.01c.238.037.021.019.194-.022.056.072-.108.035.118.07l.187.029c.072-.306.062-.396.426-.347-.06-.097-.109-.223-.285-.25l-.125-.019-.125-.019c-.314.082-.646.332-.777.602zm11.142 1.819c.274-.1.349-.248.787-.188.056-.43-.291-.663-.794-.741l-.81-.125c.246.398.573.54.817 1.054zm-3.303-.509l.187.029c.38.059.683.295 1.027.416l-.773-1.5c-.199-.327-1.06-.912-1.57-1.026l.592 1.001c.094.194.205.357.266.542.063.191.062.506.271.538zm1.581.553c.63.054.663.092 1.233.293-.044-.234-.57-1.056-.721-1.297-.274-.436-.772-.715-1.405-.938.251.528.807 1.372.893 1.942zM63.036 48.226l-.013.101-.203 1.567.062.01.02-.152c.037-.289.176-.379.203-.587l.013-.101c.238-.274.095-.332.502-.438.492.304.54.593.755 1.044l.007.105-.399 1.948-.085.657c-.02.152-.064.144-.092.348l-.147.701-.265.884c-.341-.13-.427-.626-.381-.987l.02-.152-.062-.01c-.029.221-.369.562-.639.52-.431-.066-.582-.647-1.112-.738-.194.402-1.02.674-1.502.8l-.013.101-.179 1.421.671-.314.125.019.125.019c.255.039.593.635.587.864.193.043.215.085.43.118l.374.057c.047-.363.334-.876.741-.814.331.051.979.697 1.024.931.419-.014.484-.286.793-.239s.501.851.65.873c.198.03.423-.141.836-.077l.187.029.125.019c.344.213.41.269.558.601.087.195.282.586.276.816l.125.019c.082-.349.559-.91.892-.997l.125.019.062.01c.14.022.132.061.236.14.172-1.332-2.176-1.85-2.094-2.488l.033-.253c.065-.501.924-2.384 1.255-2.333.217.033.076.103.354.209l.183-1.415c.057-.441.335-.722.908-.633l.046-.354c.036-.279-1.074-.875-1.398-.989-.145 1.117-1.444 3.68-2.435 3.594-.03-.159-.188-.416-.23-.61-.05-.232-.073-.456-.112-.68l-.196-1.423c-.01-.755-.191-2.226-.465-2.803-.582.212-.905.611-1.279 1.04zm26.573 10.279c-.029.226-.327.959-.435 1.201l-.243.602c-.074.256-.208.333-.265.578.081-.023.073-.04.194-.022l.187.029c.159.024.265.216.404.32.282-.647 1.167-1.164 1.298-2.172l.013-.101c-.15-.315-.399-.577-.932-.659l-.187-.029-.033.253zm-18.914.284c.473-.172 1.019-.462 1.761-.347l.177.028-.008.668-.03 1.181c.449-.163.899-.635 1.656-.518l.374.058c.215.033.237.075.43.118.089-.204.598-.693.603-.732.039-.302-1.456-2.647-1.812-2.702l-.125-.019c-.901.235-2.876 1.316-3.026 2.266zm11.643.401c.082.54.871.692 1.335.979l.125.018.859.236.123.022.182.077-.059.455c-.067.521.065 2.33.516 2.399.297.046 1.847-1.334 2.092-1.603.576-.631 1.196-1.405 1.475-2.332l.234-.893.105-.809.013-.101-1.402-.846-.63-.465c-.224-.179-.359-.446-.521-.577-.121.771-1.338 1.653-1.871 2.071-.356.279-2.151 1.342-2.577 1.368zm-22.664-3.645c-.121.933 1.44 2.84 2.34 3.041-.203-.328-.494-.618-.735-1.009-.288-.468-.245-.764-.443-1.183l.013-.101.013-.101.028-.106-.422-.78-.125-.019-.062-.01-.125-.019c-.174.045-.456.088-.482.287zm27.664 7.25c.561.086.323.18.659.308.164-.375.942-.894 1-1.341l.013-.101c-.122-.257-.233-.329-.577-.45-.094.216-.357.644-.51.833l-.585.751zm-19.821-4.496l-.007.051-.013.101c.483.298.54.42.68.949.078.295.221.934.18 1.246l.053.007.142-.544.135-.546c.083-.295.002-.505.042-.818.054-.414-.058-.787-.381-.987l-.125-.019-.187-.029-.125-.019c-.16.184-.356.295-.397.609zm7.138-1.618a206.92 206.92 0 0 1 1.563 2.649c-.002.014-.679.724-.731.844l3.658 2.081c.075-.579.838-1.076.842-1.108.007-.055-.687-.893-.804-1.155l-.547-1.354c-.158-.477-.092-.255-.492-.547-.222-.163-.458-.288-.693-.428l-1.417-.837-.124-.024-1.254-.122zm11.037 7.046c-.007.262.164.39.377.522.29-.065 1.242-.269 1.276-.525s-.162-.534-.496-.592c-.104.215-.818.624-1.157.595zm-5.242-2.715c-.022.167-.809 1.246-.944 1.401.524.324 1.325.874 2.158 1.003l1.309.202c.593.091 1.12-.034 1.646.047.285.044.142-.181.089-.379l-.14-.523c-.064-.236-.097-.898-.061-1.177l.072-.556c-1.081-.166-2.356-.831-2.336-1.597-.695-.107-1.04-.273-1.6-.401-.532-.122-1.066-.37-1.532-.442-.01.375.301 1.007.481 1.3l.382.566c.073.11.485.493.477.556zm4.049 3.098l.092.272.125.019.499.077.126.022.261-.066c-.141-.228-.274-.241-.384-.471-.239.087-.371.194-.718.147zm-14.373-3.863c-.027.209-.106.11-.124.343l-.013.718c-.004.512.243 1.843.555 2.096l.033-.253c.054-.416.408-1.424.63-1.674l.894 1.29.068-1.174.058-.715-.003-1.133.012-.05-.032-.777c-.939-.145-1.983.591-2.079 1.329zm.857 2.71c-.028.218-.267.594-.298.831-.013.097 1.094 1.844 1.227 1.94l-.001-.415-.099-.891 1.054.407-1.686-2.409c-.08.182-.166.297-.197.537h0zm1.445 3.159l1.843.825c-.01-.176-.388-.855-.387-.857.013-.101.637-.133.78-.138l.013-.101-1.353-.829c-.14.052-.435.244-.602.218-.026-.004-.349-.232-.426-.269l.132 1.15zm2.233.346c.083.213.056.34.177.594l1.515.552c.008-.169-.035-.198-.012-.372l.013-.101.013-.101.415-.116c-.325-.137-1.004-.645-1.203-.675-.105-.016-.774.182-.918.219zm2.303.87c.007.23.154.36.246.553.842.145 1.844 1.046 2.424 1.404-.132-.694-1.35-1.543-1.966-2.004l-.705.046zm1.446-1.84c.069-.535.684-.616 1.338-.516-.042-.222-.014-.111-.223-.241l-.125-.019-.249-.038-.754-.066-.125-.018c-.468.122-1.252.102-1.81.237-.398.096-1.269.345-1.42.658.616.106 1.682.667 2.126.929.736.435 1.058.715 1.652 1.211a4.74 4.74 0 0 1 1.178 1.492c.171.35.649 1.398.639 1.766-.753-.565-1.793-1.799-2.646-2.206-.767-.366-3.058-1.184-4.007-1.396.067.352 1.013 1.749 1.273 2.136.364.543 1.102 1.485 1.848 1.747-.177-.373-.652-1.003-.64-1.439.348.133 1.778 1.385 2.118 1.68a3.34 3.34 0 0 1 1.196 2.182l.223-.166.003-.109.007-.05c.048-.368-.156-1.045-.272-1.332-.118-.292-.508-.946-.549-1.166.477.357 1.764 1.714 1.533 2.401l-.116.394-.012.102c-.272.313-.27.472-.679.708-.353.204-.707.154-1.098.256l-.125-.019-.125-.019c-1.284-.198-2.633-2.725-3.881-2.918l-.187-.029-.567-.03c.196.179.471.248.749.481.223.187.405.324.597.532l.99 1.184c.558.613 1.23 1.955 2.378 2.132l.187.029c1.057.163 1.328-.398 1.856-.59-.098.416-.993.868-1.292 1.141.422-.014 1.7-.566 1.996-.786.447-.331 1.093-.978 1.181-1.664l.078-.606c.209.156.363.633.325.926l.062.01.078-.607.048-1.231c.002-.909-.466-1.856-.83-2.55-.187-.357-.435-.736-.66-1.1-.214-.347-.556-.74-.713-1.069.447.157.822.333 1.407.423.518.08.925-.364.99-.776-.321.011-.436.139-.836.078l-.312-.048c-1.049-.161-1.842-1.727-3.805-2.029z"/><path d="M23.964.009c.24-.009.239.008.443-.009l.013.101c-.603.212-1.777 1.364-2.054 1.811-.612.105-1.255.619-1.335-.001 0-.003.178-.258.212-.341.052-.13.064-.249.117-.397l.299-.802.126-.015.927-.199.561-.101.692-.048zm3.177 1.477l.013.101c-.295.104-.764.385-1.129.542a6.88 6.88 0 0 1-1.416.417l-.249.038c-.638.098-1.492-.141-1.607-.629.481-.169 1.542-1.217 1.745-1.248.216-.033 2.201.752 2.643.779zm-8.853 2.807c-.011-.428.15-.874.217-1.271.123-.73-.092-.634.53-1.131.685-.548 1.249-1.149 2.036-1.635.149 1.153-1.31 3.81-2.783 4.037zm11.118-.526l-.554.137-.311.048c-1.214.187-2.804-.55-3.379-1.07l.677-.163a4.28 4.28 0 0 0 1.325-.565c.097.41.681.717.997.941.286.203.312.185.585.349.208.125.545.227.661.324zm-13.724 2.99l-.033-.253c-.09-.693.484-1.735.723-2.277.161-.365 1.358-1.364 1.755-1.662-.217 1.433-1.301 3.334-2.445 4.191zM5.12 12.559c-.081-.023-.073-.04-.194-.022l-.561.086-.125.019c-.178.11-.475.259-.446.481.015.116.063.145.207.123.577-.089.925-.374 1.119-.688zm6.157-2.031c-.863.149-2.878 1.503-3.176 1.984.269-.095.699-.389.967-.545.333-.193.778-.315 1.06-.489l.125-.019.436-.067.125-.019c.274.071.529.16.57.479.097.752-1.566 1.52-2.034 1.963.191-.043 1.115-.538 1.265-.647l.551-.372c.178-.133.274-.32.47-.467l.079.607c.242-.092.335-.357.302-.614l-.039-.303c-.041-.315-.234-.412-.334-.619l.312-.048c.168-.026.175-.002.318.003-.134-.277-.608-.422-1.062-.352l-.312.048c.048-.251.255-.325.377-.522zm-.563-1.408l-2.05 1.347-.124.021-.555.135c-.058-.129-.075-.086-.089-.192-.032-.249.876-.754 1.23-.808l-.007-.051-.872.134c-.554.085-.903.39-.843.852l.013.101c.219.252.111.239.489.337l.125-.019.062-.01.127-.017.234-.142c.192.07.534.279.794.239.386-.059.846-.561.837-.902-.242.092-.184.183-.479.228l-.187.029c.057-.299 1.076-.958 1.296-1.282zm1.897-2.045c.768-.172.982-1.139 1.419-1.449l-.109.268.007.101.009.515c.296-.222.891-1.166 1.219-1.515.419-.447.811-1.127 1.315-1.504-.002.013-.61 1.109-.682 1.228-.141.235-.402 1.134-.369 1.46-.843.52-.478.792-.901 1.237-.141.149-.432.227-.672.487-.213.23-.351.334-.478.602.488-.172.985-.5 1.407-.749.302-.178 1.156-.863 1.24-.896-.12.793-1.811 2.124-2.241 2.82.737-.127 1.093-.963 1.49-1.26-.072.479-.429.853-.635 1.261l.832-.724c-.072.378-.56.667-.761.994.286-.109 1.048-.656 1.093-.89l.124-.019c.016.597-1.166 1.532-1.224 1.838 1.115-.638 1.263-.82 1.892-1.768.287-.433 1.429-1.532 2.111-1.684-.381.36-.644.457-1.042.92-.254.295-.53.781-.73 1.106-.693 1.129-.528 1.229-1.834 2.035l-.125.019-.249.038-.122.011-.403-.028.554.734.013.101.052.404c.018.142-.015.098-.105.171-.071-.451-.397-.65-.797-.754l-.125.019-.062.01-.123.022-.201.088.327.406.013.101.013.101.027.106-.329.508-.059-.455c-.023-.18-.083-.4-.302-.366-.416.064-1.297 1.524-2.136 1.669.159-.257.354-.407.345-.775-.486.084-1.475.694-1.707.944-.291.313-.629 1.14-.56 1.673l.072.556c-.229-.083-.343-.226-.439-.448-.253.096-.129.043-.223.241l.013.101.02.152c.024.183.164.542.383.508l.187-.029c.298-.046.601-.168.791-.276-.056.295-.353.446-.62.611l-.125.031-.567.024c.061.39.193.215.315.467l-.187.029c-.295.045-.795-.184-1.049-.251.067.284.422.524.603.732-.456-.015-1.093-.437-1.246-.788-.342.059-.349.149-.535.288.018-.118.047-.126.03-.262-.025-.197.084-.336.053-.575-.002-.018-.755-.434-.823-.956l-.046-.354c.276.192.648.828 1.115.756.357-.055.399-.827.435-1.141.022-.191.077-.435.165-.602.048-.09.323-.459.316-.512-.021-.164-.251-.374-.488-.337-.48.074-.455.229-.709.418-.054-.53.42-.754.824-1.003l.125-.019.25-.05.692-.043-.02-.152c-.017-.13.435-.664.525-.854l-.249.038c-.216.133-.507.336-.84.387l-.125.019c-.224.035-.336-.206-.469-.185-.334.051-.416.167-.797.226l.046.354c.04.313-.183.727-.405.886l.021-.414c.014-.185-.089-.241-.121-.445-.12-.044-.123-.084-.262-.063l-.125.019c-.316.195-.736.349-.801.69-.351.03-.493-.13-.961-.058-.137.021-.152.299-.135.433l.052.404c.023.174.071.189.108.344-.269-.11-.671-.764-.718-1.127l-.013-.101c-.112-.129-.279-.318-.544-.277-.165.025-.212.326-.19.493l.046.354c-.233-.031-.29-.277-.321-.518l-.065-.505c-.338.254-.411.441-.62.611-.044-.436.251-.685.443-.996l-.249.038c-.265.164-.519.595-.558.601-.087.013-.134-.05-.144-.133l-.013-.101c.135-.284.435-.657.788-.791-.35-.292-.913-.178-1.023-1.028l-.02-.152c-.121-.937.34-1.08 1.014-1.496l.125-.019.374-.058c.865-.133 1.498.13 2.352-.001l.312-.048c.509-.078.609-.912.68-1.322.057-.33.072-.468.355-.676.127-.093.715-.313.956-.343l1.514-.055.249-.038.125-.019c.469-.29.699-.484 1.106-.789-.065.342-.558.756-.893.962l-.125.019-.373.072-1.69.194c-.386.043-.523.224-.715.368l.013.101c.03.236-.054.077-.023.313.1.771-.304 1.387-1.263 1.535l-.374.057c-.668.103-1.779-.072-2.1 0l-.55.15-.125.019c-.183.113-.532.308-.502.541l.072.556.013.101c.147.169.358.453.633.47l-.026-.202c-.025-.193.117-.449.246-.553l.052.404.003.108.223.166c-.012-.442.397-.989 1.004-1.082l.187-.029.125-.019c.362.095.723.507.951.472l.81-.125.129-.027.458.143c.103-.167.579-.553.876-.599l.187-.029c-.091-.386-.418-.28-.446-.498l-.052-.404c-.031-.239.027-.505.24-.604.034.266.047.384.364.356.041-.217.346-.311.653-.358l.062-.01c.556-.086.69-.541.93-.847.31-.396.874-.336 1.136-.771.255-.423.97-1.897 1.4-2.06-.139.292-.295.667-.243 1.069l.046.354c.268-.201 1.429-1.57 1.768-1.935.261-.281 1.694-1.792 1.934-1.883-.481.779-2.282 3-2.16 3.941h0zm18.635-.395l-.249.038c-1.718.265-2.657-.976-3.354-1.855l.498-.077c.383-.059.902-.292 1.151-.435.046.292.673 1.032.882 1.237l1.071 1.091zM23.74 3.196l.125-.019.686-.106.125-.019c.381.439 1.113 1.165 1.921 1.096-.231.374-1.366 1.293-2.044 1.397l-.793.123.221 2.337.027.253.009.515c-.601-.157-1.345-.772-2.243-.634-.143.022-.07.028-.232.084l-.093-.137-.012-.101-.405-1.442-.458-.796c.365-.591 1.44-2.548 1.422-3.261.254.092.411.284.77.437.442.189.524.156.975.274zm-3.733 2.585c.004.033.424.671.492.794.157.279.263.579.377.927l.232.893-.748.115c-1.245.192-2.646.97-3.434 1.457.044-.29.616-1.209.811-1.477.314-.432 1.177-1.015 1.319-1.222l-.312.048c-.817.126-1.157.585-1.616.952-.499.399-.813 1.008-1.146 1.278-.006-.241.092-.269.059-.525l-.006-.051c-.025-.193.017-.021-.084-.144l-.346.261-.038-.302-.3.147c.049-.323.272-.903.443-1.183.165-.268.572-.799.528-1.132l.002-.093 1.632-2.014c.241.008.403.041.698-.004l.062-.01c.829-.128 1.912-1.275 1.992-1.802.272.017.122.084.325.053l.126-.018.471-.28c.078.773-1.543 3.305-1.54 3.33h0zm3.357 3.35c-.397.089-.376.253-.653.358-.061-.141-.278-.402-.382-.509-.143-.148-.426-.266-.559-.377.515-.079 1.467.266 1.594.528zm.941.886l.02.152c-.492.11-.821.409-1.114.632l-.093-.137-.008-.102-.165-.747c-.052-.212.517-.492.82-.539.351-.054.5.429.541.742zm4.41-3.257l.006.051c.068.524.523 1.689.766 1.996-.019.124-.043.159-.023.313l.084.762.161.644c-.564-.147-.933-.463-1.386-.752-.422-.27-.761-.767-1.132-1.025.02.749-1.151 3.125-1.789 3.369l-.026-.202c-.072-.555-.262-1.008-.43-1.437l-.582-1.347.019-.98-.069-1.123-.071-.918c-.007-.118.017-.157.167-.18l.374-.058c.549-.085.879-.26 1.231-.481.29-.182.744-.664.901-.724.047.201.66.928.824 1.128l.445.499c.129.147.516.373.528.468zm2.049.612l.125-.019c.3.346.645 1.054.721 1.642l.195 1.313-.006 1.133.018.103-.11.169c-.153-.647-.78-1.645-1.098-2.156-.221-.355-1.187-1.756-1.228-2.074l-.046-.354c.379-.033.818.338 1.43.244zm-5.876 4.204l.089.505-.051.778a1.96 1.96 0 0 0-1.03-.099l-.12.026-.365.151-.065-.505c-.064-.499.138-1.723.657-1.802l.062-.01.125-.019c.43.112.634.476.698.975zm-.139 1.877l.013.101.026.202c.082.631-.247 1.505-.513 1.935-.349-.127-.336-.217-.807-.34l-.125.019-.312.048-.131.013-.404.276c-.1-.77.743-2.434 1.638-2.572l.125-.019c.377.098.269.085.489.337zm5.095-2.383l.013.101.183 1.415c.014.11-.312.421-.409.597-.126.229-.134.51-.245.741l.007.101.009.515.085.657c-.392.149-.749 1.266-.739 1.66-.315-.219-1.376-1.848-1.567-2.285l-.125.019c-.081.423-1.711 1.243-2.493 1.363.203-.427.746-2.097.677-2.63-.023-.174.021-.203.017-.363.451-.172 1.15-1.136 1.38-1.512.416-.679.593-1.063.721-1.904.193.134.304.345.487.512l.543.452c.415.295.913.419 1.456.561zm1.597 1.043l.121.445c.104.341-.008.924.032 1.232.06.466-.124 1.274-.458 1.516l-.367-1.388-.466-2.249-.097-.655-.208-1.206c.412.286 1.253 1.686 1.442 2.304zm-1.039 2.43c.113.408.353.62.391.918l.085.657.011.101-.09.272-.872.134c-.352.054-.328.154-.735.216-.078-.601.552-1.135.535-1.268-.031-.241.042-.168.017-.364-.04-.311.247-1.801.358-1.961l.3 1.294zm-6.392 1.55l-1.677 2.269c-.509-.185-.958-.545-1.663-.569.111-.584 1.23-1.633 2.185-1.78.548-.084.779-.018 1.154.08zm4.232.901l-1.017.142.147-.571-.19-.032-.125.019-.187.029-.125.019c-.739.457-1.107.764-1.653 1.35l-.664.771c-.146.184-.47.69-.621.805l-.025-.769-.033-.253c-.249.187-1.298 1.798-1.418 1.816-.097.015-.644-.2-.794-.239l-.013-.101-.02-.152c-.015-.12 2.645-3.191 2.825-3.219.983-.151 2.443-.781 2.555-1.373l.085.002 1.27 1.754zm-6.299 1.789c-.374.28-.669.577-.979.911l-.944.932c-.161-.334-.969-.469-1.574-.376l-.499.077c.088-.585 1.23-1.736 2.11-1.872l.374-.058c.615-.095 1.229.128 1.512.386zm-2.339 2.062c.006.234-.331.428-.511.582l-.592.534c-.408.324-.789.869-1.147 1.137-.289-.333-.753-.748-1.42-.658.084-.553 1.283-1.435 2.087-1.559l.748-.115c.401-.062.515.066.836.077zm2.794-.018c.005.171-.019.162-.003.362l.038 1.385.17 1.314c.059.454.298.887.531 1.156-.195.316-.604.921-.66 1.287-.081-.023-.073-.04-.194-.022l-.187.029c-.859.132-1.137.949-1.608 1.33l-.309-2.273-.06-1.073c-.482.065-1-.06-1.312-.199-.138-.061-.884-.56-.895-.647-.01-.081 1.331-1.351 1.503-1.533l1.529-1.563c.137-.021 1.225.386 1.456.446zm-5.449 2.592c.033.258-1.506 1.779-1.611 1.795-.029.005-1.237-.48-2.017-.36-.102.016-.191-.002-.2-.072-.038-.294 1.841-1.727 2.372-1.809.347-.053 1.433.27 1.456.446zm-5.668 2.368c-.625.22-.659 1.132-.87 1.629-.081-.023-.073-.04-.194-.022-.454.07-.699.195-1.04.315-.131-.301-.251-.467-.305-.881l-.013-.101c-.093-.718.348-2.742.674-3.145.061.469-.153.779-.079 1.353l.085.657c.214-.161.21-.291.315-.512l-.013-.101c-.117-.907.263-1.689.774-2.246.321-.349 1.786-1.02 2.318-1.374.918-.612 1.111-.884 1.702-1.694.36-.494.932-1.528.838-2.254l-.007-.214.126.145.013.101.039.303c.095.732-.694 2.005-.595 2.772.445-.334 1.255-2.429 1.533-3.054.265-.595.441-.989 1.118-1.341.322-.167 1.643-.751 2.015-.808l.125-.019c.631-.39.721-.584 1.111-1.112.29-.393.494-1.041.733-1.337.011.405-.462 1.647-.656 1.99-.544.962-.765.756-1.888 1.257-.931.416-1.433.543-1.828 1.293-.302.573-.562 1.328-.83 1.933-.241.544-.645 1.301-1.061 1.749-.556.598-1.125.794-1.965 1.211-.217.108-.827.459-.979.584-.45.37-.359.421-.658.822-.336.451-.627 1.416-.538 2.106zm3.46-.275c-.192.31-.681.679-.967 1.011-.175.203-.729 1.01-.923 1.084-.144-.298-.924-.425-1.443-.345l-.623.096c.126-.664 1.313-1.8 2.352-1.96l.125-.019c.666-.103 1.011.117 1.479.133zm5.048-.777c-.019.127-.027.117-.036.263l.004.515.074 1.02.196 1.516c.018.137.048.135.095.243-.709.249-.959.507-1.292 1.005l-.822 1.331c-.075-.319-.571-.973-.619-1.348l-.005-.103-.23-.737-.046-.354c-1.169-.04-1.953-.787-2.541-1.465.122-.198 2.851-2.862 2.871-2.865.065-.01.935 1.17 2.351.978zm4.942 1.353c-.037.195-.982.92-1.201 1.152-.196.208-.404.34-.594.58l-.499.683c-.094-.726.465-2.628 1.094-2.849.129.267.76.494 1.2.434zm-13.388 1.645l.125-.014.912.169c-.044.231-.752.897-.944 1.165l-.913 1.183c-.012.002-.368-.244-.523-.3-.249-.09-.438-.12-.684-.184l-.125.025-.567.03c-.197.006-.237.083-.492.127.105-.692 1.313-1.955 2.395-2.122l.187-.043.63-.036zm10.668 1.404c-.301.106-.986.705-1.198.92l-.538.52c-.19.204-.265.407-.416.593l-.02-.152c-.056-.432.434-1.891.598-2.257.21-.47.856-1.627 1.555-1.735l.187-.029c.016.618-.269 1.36-.168 2.14zm-11.998 1.59c.007.052-1.277 1.84-1.359 2.271l-.125.019c-.112-.231-.478-.231-.738-.299l-.125.014-.63.05-.315.037-.676.167c.36-.758 1.438-2.335 2.661-2.523l.187-.029c.338-.052 1.1.153 1.118.292zM5.3 33.616c-.345.558-.658 1.022-.932 1.639-.154.346-.573 1.464-.519 1.884.024.184-.04.129-.017.363-.241.195-.495.798-.486 1.157-.244.054-.603.251-.577.45l.057.302.017.769c.01.411-.185.568-.332.876l.013.101.066.768.464 1.367c-.348-.242-1.061-1.326-1.134-1.887l-.013-.101c-.035-.274.065-.413.177-.594-.205-.084-.431-.381-.465-.65l-.007-.05-.013-.101c.174-.365.357-.683.292-1.179l-.091-.812-.135-.442c1.196-.206 1.538-1.355 1.89-2.095l-.013-.101c-.054-.417-.63-.966-.967-1.088-.566.199-.909.206-1.049.682-.114.387-.139.772-.306 1.124l-.125.019c-.345.053-.365-.36-.649-.461l.173.225.013.101c.038.295-.175 1.13-.18 1.523l-.024.828.034.355.007.628-.199-.237-.01-.102-.17-.798c-.047-.199-.002-.376-.032-.614L0 36.645l.058-1.294-.036-.151.077-1.505c.971-.149 1.084-.354 1.411-.887.145-.237.68-1.078.722-1.297l.125-.019c.078.332.852 1.24 1.082 1.483.433.458.863.795 1.862.642zm14.094-2.583l.015.101-.012.414-.249.038c-.09.133-.496.534-.679.763l-.64.832c-.051-.506.488-1.946.686-2.391.342-.769.776-1.433 1.483-1.964-.039.258-.504 1.995-.604 2.207zm-2.878-2.598l.312-.048.08.815.242.84.391.916-1.021 1.446c-.175-.006-.266-.062-.387-.043-.433.067-1.388 1.754-1.379 2.12l-.732.111-.13-.39-.22-.688-.163-.8-.091-.708-.249.038c-1.147.177-2.224-.265-2.545-1 .451-.73 1.129-1.431 1.68-2.127.558-.703 1.16-1.471 1.913-2.035.26.597 1.447 1.685 2.298 1.553zm.913 4.602c.025.195-.048.123-.017.364l.013.101c-.672.415-.874 1.162-1.306 1.696-.035-.34.378-1.754.485-2.091.16-.505.566-1.555 1.114-1.764.012.44-.373 1.046-.289 1.694zm-8.986.301c.008.314-.505 1.259-.622 1.636-.134.431-.55 1.211-.537 1.687-.335-.122-.613-.37-1.181-.282l-.374.058c-.5.077-1.108.452-1.512.594.178-1.173 1.133-3.474 2.698-3.715l.312-.048c.525-.081.815.057 1.217.07zm16.5-.685c.087.675-.987 1.596-1.749 1.713l-.187.029c-.054-.534.297-.98.608-1.318.196-.213.973-.872 1.256-.98l.072.556zM15.7 34.902l.013.101.039.303.013.101c-.58.358-.702 1.161-1.063 1.607l-.046-.354c-.155-1.201.644-3.029 1.438-3.624.04.313-.282 1.628-.394 1.865zm7.095-1.66c.116.898-.956 2.708-1.727 2.996l.014-.516c.004-.237.08-.367.059-.525l-.013-.101c.272-.573.02-.628.559-1.207.268-.288.701-.756 1.138-.91-.018.118-.047.126-.03.262zM33.321 8.474l-.01.414c-.009.133.3 1.04.343 1.237l.685 2.781.148 1.009-.001.618c.016.936-.603 2.297-1.167 2.899-.449.48-.646.675-1.288 1.053-.219.129-1.644.724-1.627.852.011.082.186.092.269.113l.125-.019.374-.058c1.044-.161 1.511-.721 2.077-1.145-.114.753-1.666 2.009-2.831 2.189l-.748.115c.126.288.562.494.79.703l-.249.038c-.602.093-.81-.244-1.194-.383-.142.05-.178.079-.367.108l-.125.019c-.38-.099-.344-.223-.613-.433-.255-.199-.424-.2-.751-.285l-.125.019-.499.077-.125.019c-.571.352-.927.697-1.196 1.249-.237.488-.474 1.074-.39 1.728l.078.607c.025.193-.017.021.082.142.142-.115.366-1.413.498-1.71.311-.698.578-.865 1.274-1.295l.125-.019.125-.019c1.364-.21 1.803 1.114 3.791.808l.436-.067.125-.019c.436-.269.564-.378.875-.739.176-.204.469-.809.693-.894l.046.354c.063.49-.129.663-.119 1.049.699-.266 1.029-2.13 1.401-2.433l.058.252-.039.728-.253 1.633c.526-.118.649-.705 1.017-.982.062.608-.61 1.545-.886 1.992.364-.081.593-.235.84-.387.048.475-.736.748-1.056 1.285-.133.224-.247.477-.358.72-.135.294-.313.467-.46.706l-.125.019c-.809.125-1.285 1.076-1.59 1.574l-1.147 1.837c.011.084.304.12.4.145l.125-.019.187-.029c-.229.336-1.368.726-1.329 1.029l.033.253c.076.585-.181 1.06-.109 1.615l.02.152.013.101c.098.113.173.231.407.195l.125-.019c.414-.256.418-.462.691-.671l-.133 1.049c.311-.252 1.331-1.998 1.27-2.464l.062-.01.02.152c.081.629-.276 1.489-.445 2.022l-.319.977c-.134.527-.414.399-.861.654-.169-.061-.376-.251-.538-.227l-.125.019c-.288.178-.299.223-.522.39-.271-.342-.535-.983-.778-1.408-.126-.22-.823-1.181-1.015-1.152-.279.043-.617 1.62-.568 1.995l.013.101c.047.366.245.557.36.821-.255-.093-.318-.145-.656-.157-.192.119-.294.145-.335.361l.499-.077c.15-.023.194.054.331.104l.013.101a2.86 2.86 0 0 0 .428.863c.266.279.583.378.771.551-.358-.012-1.243-.274-1.562-.389-.583-.211-.825-.359-1.195-.785.137-.289.151-.427.153-.797l-.018-.616c0-.445-.257-1.007-.321-1.497-.033-.252 1.556-1.242 1.421-2.281-.047-.36-1.484-.699-2.04-.61l-.679 1.699c-.052-.402-.287-1.032-.545-1.204l.23.737.021.05-.018.465c-.248.201-.305.537-.332.876l-.033.727c-.014.17-.039.191-.017.364.018.142-.015.098-.105.171-.053-.338-.258-.519-.311-.932l-.134-.908-.047-.718.067-1.041.162-.896.997-.154.125-.019c.149-.314 1.167-1.596 1.562-1.684.066.28.73 1.009.958 1.155.392.251.922.617 1.609.512l.311-.048c.845-.13 2.025-4.118 2.154-4.971-.44.272-1.043 1.156-.988 1.699l-.623.096c-1.037.16-1.594.469-2.172.901-.197.017-.228-.016-.443.017l-.062.01c-.877.135-2.08-.279-2.499-.646-.468-.411-.386-.292-.713-.901-.154-.287-.349-.927-.397-1.299l-.085-.657c-.117-.909.133-2.428.706-2.893.009.354-.219.939-.203 1.372l.048.869.02.152.062-.01c-.02-.156.332-1.224.408-1.437.196-.554.335-.857.656-1.337.267-.399 1.818-1.902 2.314-2.076-.286.463-1.089 1.253-1.168 1.778.21-.157.387-.348.633-.51s.527-.276.772-.428l.125-.019 1.371-.211c.655-.101 1.247-.315 1.819-.505.709-.235.95-.405 1.267-.88s.433-.654.671-1.188c.1-.224.406-1.335.437-1.373l.046.354c.075.582-.107 1.237-.264 1.709-.081.243-.172.557-.293.759-.076.126-.347.612-.366.715.599-.211 1.112-1.01 1.387-1.461.36-.59.536-1.175.536-1.978l-.048-1.231-.048-.509-.48-2.09-.179-.901c-.155-.706.379-2.37.719-2.792.007.256-.209.745-.24 1.07l-.108 1.149h0zm.151 26.732l-.187.029c-1.309.202-2.627-.436-2.846-1.366l.498-.077c.412-.063.425-.342.633-.51.377.864 1.26 1.338 1.901 1.924zm-19.229 1.209l.036.768.065.505.013.101c-.245.515-.319 1.467-.224 2.2-.31-.042-.462-.627-.505-.953l-.065-.505c-.104-.805.184-3.089.779-3.316-.073.483-.13.585-.099 1.201zm-1.458-3.9l.249-.038.157 1.213c.066.509.327 1.265.583 1.56-.426.345-.481 1.741-.526 2.394l-.145 1.267-.09.6c-.066.218-.17.366-.202.58-.756.102-1.755-1.286-1.839-1.934l-.033-.253c-.206.096-.429.521-.623.703-.285.266-.538.355-.866.558l-.125.019-.561.086c-.558.086-1.322-.102-1.567-.326.11-.23.416-1.627.47-1.96.096-.59.373-1.384.571-1.947.217-.614.406-1.279.695-1.826.139-.262.846-1.573 1.126-1.616.096-.015 1.128 1.167 2.725.921zm6.229 5.897c-.014-.517.228-2.237.442-2.583.307-.498 1.169-1.501 1.653-1.863-.048.315-.233.84-.329 1.204l-.303 1.266c-.153.393-1.123 1.722-1.462 1.976zm6.154-3.525l.026.202.013.101c.208.24.186.275.487.454.107.063.622.258.627.303.007.051-.249.223-.325.32-.091.115-.162.261-.22.383l.013.101.114 1.014.242 1.251.013.101c-.563.348-1.117.646-1.594 1.058-.294.254-1.088 1.003-1.149 1.323l-.125.019c-.127-.809-.554-1.714-1.042-2.159.262-.552.327-1.04.441-1.698.065-.379.293-1.48.25-1.811l-.006-.051c-.024-.188.126-.502.095-.736-.023-.174.021-.203.022-.378l.319.068.125-.019.125-.019c.55-.085.739-.377 1.026-.603.32-.252.48-.675.693-.847-.068.448-.234 1.138-.171 1.624zm-7.618 4.988l-.029-.717c-.012-.795-.052-.979.317-1.584.159-.26.745-1.019.976-1.192.05.388-.25 1.495-.326 1.906-.082.447-.596 1.332-.938 1.588zm15.046-4.07c.154-.024.442.007.635.007.332-.001.302.066.428.287l.512.888c.331.573.78 1.191 1.031 1.768-1.361-.046-2.879-1.619-3.049-2.933.197-.017.228.017.443-.017zM6 37.058c.438-.023.636.042.954.015.006.209-.264.885-.33 1.204-.052.254-.2 1.088-.173 1.297l.007.05c.015.116-.045.333-.041.524l-.031.727-.035.879.034.757-.551.148c-.298.084-.428.014-.692.055l-.125.019c-.572-.149-.733-.099-1.186-.449-.301-.232-.484-.668-.545-1.14l-.037-.15.008-.567c-.001-.577.254-1.48.467-1.962.193-.438.878-1.295 1.585-1.358L6 37.058zm23.425-2.672c.358-.055.253-.181.535-.288.181.415 1.213 1.571 1.668 1.599.048.204.077.103.102.294l.006.05c.091.701 1.231 2.179 1.668 2.578l-.187.029c-1.267.195-1.613-.454-2.037-.511.047.364-.192 1.461-.258 1.853s-.245 1.541-.62 1.684c-.124-.958-.549-1.461-1.106-1.975-.358-.33-1.519-.972-2.186-.869l-.423.064-.315-1.342-.043-.201.014-.516-.013-.101c.078-.164.324-.72.538-.753.011-.002 1.233.147 1.292.162l.125-.019.499-.077c-.192-.175-.418-.248-.653-.448a3.62 3.62 0 0 1-.557-.552l-.013-.101-.008-.206-.297-1.655c-.056-.307.13-1.257.342-1.29.103-.016.511.444.571.537.184.288.232.438.352.773.134.375.593 1.344 1.002 1.281zm-12.337 4.374c.127.985-.308 2.419-1.507 2.603l-.124.017-.31-.06-.173-.225-.013-.101-.007-.05c-.024-.183.857-1.011 1.036-1.204l1.064-1.233.033.253zm-3.726.677c.079.609 1.413 1.923 1.822 2.297l-.312.048-.125.019c-.772-.201-1.165-.484-1.382-1.281l-.125-.548-.085-.657c.143.009.188-.017.207.123zm14.798.402l-1.053.214-.062.01c-.15.023-.916-.374-1.013-.463.193-.043.215-.085.43-.118l.81-.125.125-.019c.479.125.567.049.764.501zM5.65 43.203l.554-.137c-.018.118-.047.126-.03.262l-.005.158.273.935.329 1.085c.075.35.343.677.388 1.022l-.499.077c-1.435.221-2.551-1.15-2.839-2.243l-.269-1.145-.059-.455c.181.011.62.272.956.351.25.059.842.19 1.198.09zm29.886-3.829l.258 1.2.432 1.684c-1.008-.366-2.26-1.749-2.425-3.029l-.065-.505c.116.016.664.301.827.375.172.078.774.269.973.276zm-5.95 2.154l.007.05c.027.207-.447.378-.709.419l-.062.01c-.371.057-.481-.023-.823.024-.205-.425-.777-.755-.888-1.461l.561-.086c.311-.048.671-.363.889-.498.34.391.944.911 1.026 1.543zm-16.791-1.074c.184.779.996 1.905 1.839 1.933.011.417-.633 1.125-.949 1.395-.492.421-1.018.703-1.594 1.058l.013.101.058.252-.045.829c-.032.665-.226 1.343-.478 1.909-.136.305-.774 1.532-1.105 1.583-.135.021-1.09-.778-1.223-.928-.368-.418-.688-.753-.974-1.254-.458-.801-1.089-2.091-1.235-3.219l-.209-1.617c-.062-.477-.093-1.081-.062-1.53.036-.526.199-.911.263-1.337.232.014.34.139.549.214.221.079.421.111.644.169l.125-.019.685-.106c.693-.107 1.262-.706 1.716-.986.1.776 1.127 1.667 1.98 1.551zm-6.49 6.825l.125-.019.249-.038c.453-.07.532-.214.853-.286.278.637 1.226 1.644 1.678 2.165-.22.165-.293.303-.715.368l-.062.01c-1.219.188-3.318-1.785-3.472-2.765.27.017.426.187.627.304.182.106.502.206.718.263zm16.237-11.574l.006.051c.042.325-.017.562-.057.852l-.108.823.013.101c-.128.269-.162.698-.257 1.014-.045.15-.381.934-.374.991 0 .001.599.686.72.952.153.338.409.896.46 1.289l.02.152c.033.257-3.694 3.993-3.761 4.342l-.116.017-.231-.737c-.215-.66-.508-1.153-.908-1.613.193-.406.399-.936.514-1.374l.211-.714c.069-.302.054-.528.175-.782l-.013-.101c-.006-.044.088-.804.106-.963.033-.274-.012-.761-.05-1.056l-.013-.101c.827-.51 1.816-1.2 1.952-2.105l.249-.038c.56-.086 1.22-.986 1.483-1.311.006.211-.048.123-.023.313zm7.781 6.892l.145 1.119-.058.727.013.101c-.105.078-.096.118-.236.139l-.374.058c-.533.082-1.154-.05-1.374-.304l-.013-.101c-.03-.236-.071-.058-.102-.294l-.031-.201-.225-.791c-.048-.15-.086-.173-.108-.344-.018-.136-.048-.135-.095-.249l.567-.03.81-.125c.435-.067.483-.255.857-.34l.223.634zm5.922.277l.045.767.079 1.173.034.355.028.615c-.531-.217-1.615-2.166-1.72-2.983-.051-.394-.024-.815.112-1.1.083.034 1.423 1.163 1.423 1.173zm-3.265-3.621l.249-.038c.238-.037.025.012.169-.074l.093.137.013.101.007.051c.036.276.161.261.197.537.025.197.166.297.197.537l.007.051c.005.039.341.919.372 1.024l-.012.777.022.411.479 1.986c.038.156-.217.856-.269 1.053-.073.275-.151.893-.348 1.053-.094-.217-.975-1.405-1.144-1.474-.237.5-1.477 1.619-2.316 1.749-.226.035-.353.011-.512-.024.052-.341.261-.79.353-1.143.077-.295.191-.943.301-1.174l.001-.101.088-1.665-.015-.31-.24-.681c.5-.809 1.015-1.984.861-3.174.447.162.728.507 1.449.395h0zm-3.171 5.953l.436-.067c.066.652-.548 2.198-1.165 2.293-.452.07-1.431-.254-1.462-.497-.006-.043.353-.727.417-.872.12-.27.252-.702.295-.991.365.095.957.213 1.479.133zm-19.225 5.177c-.405.055-1.606-.131-1.643-.417-.04-.311.122-.474.364-.623l.125-.019.062-.01c.264-.041.994.845 1.092 1.069zm6.867-6.367c.029.221.96 1.035 1.098 2.099l.039.303c.092.71-.765 1.485-1.194 1.95-.296.321-.589.505-.973.774-.445.313-.813.385-1.213.632l-.125.019c-.257.04-.379.162-.735.216l-.685.105c-.524.081-2.671-.009-2.702-.254-.001-.008.511-.771.573-.872.18-.292.328-.633.464-.937.222-.494.488-1.52.495-2.138l-.018-.565-.033-.253.249-.038c.726-.112 1.382-.741 1.715-1.126.192-.222.328-.534.428-.819l.148-.425c.043-.197-.038-.399.207-.437.594-.092 1.459-.876 1.821-1.157.513-.398.956-1.064 1.408-1.402.077.592-.116 1.762-.255 2.275l-.259 1.059c-.045.164-.454.975-.452.991zm11.016 3.909c-.417.261-.942.726-1.57.823l-.187.029c-.296.045-.457.013-.699.005l-.013-.101c.313-.12 1.341-1.243 1.388-1.554l.105-.003.975.802zm-17.979 3.195c.021.167-1.115 1.46-1.145 1.465-.123.019-.18-.178-.4-.145l-.062.01c-.168.026-.169.051-.305.099.271-.438 1.081-1.223 1.582-1.532l.125-.019c.144-.022.191.006.207.123zm25.551-4.914c.012.093-.245 1.138-.292 1.366-.055.27-.268 1.186-.241 1.396l-.049.006-.135-.442-.013-.101c-.031-.243-.196-.511-.294-.72-.037-.079-.115-.225-.181-.323-.079-.116-.257-.196-.262-.235-.022-.174.174-.903.213-1.133.058-.344.119-.849.467-.982.106.242.782 1.136.787 1.168zM9.074 52.989c-.254.534-.573 1.068-.668 1.698l-.436.067c-.195.03-.349.148-.479.228-.085-.659.5-1.696 1.011-2.012l.125-.019.062-.01.126-.022.259.069zm9.802-1.873c-.135.219-.542 1.011-.535 1.268l-.498.077c-.263.041-.391.213-.654.306l-.113-.343c-.812.181-1.744 1.361-2.155 1.518l-.039-.303c-.059-.455.109-1.143.253-1.483-.654-.171-1.551-.69-1.649-1.447l.623-.096a6.75 6.75 0 0 0 1.992-.635 4.89 4.89 0 0 0 .727-.454c.274-.205.404-.393.627-.561.102.791.991 1.656 1.422 2.152zm-.608-2.216l2.839-.19c.062.394.397.933.558 1.299.092.211.703 1.077.716 1.186.011.084-.402.993-.391 1.401-.302.068-.464.226-.728.267-.216.033-.418-.554-1.138-.443l-1.247.192c-.011-.408.448-1.455.427-1.612-.002-.014-.35-.34-.414-.417-.169-.204-.214-.323-.352-.542-.158-.251-.535-.818-.587-1.154l.316.015zm.443 3.891c-.243.394-.65.847-1.268 1.014l-.552.143c.072-.477.633-.825 1.066-1.092l.125-.019.187-.029c.214-.033.247-.003.443-.017zm5.882-3.174l.374-.058c.075.474 1.214 1.307 1.698 1.337-.162.341-.23.683-.245 1.12l.008.979-.249.038c-.114.017-1.07-.454-1.886-.328l-.561.086c-.282.043-.139.202-.335.361-.125-.259-.655-.501-1.02-.513l-.02-.152c-.058-.45.53-1.306.529-1.319s-.569-.922-.656-1.078c-.113-.203-.493-.978-.53-1.214.603.219 2.045.871 2.892.74zm-3.734 3.565c.008.059-.702.597-.815.682-.376.281-.59.382-.986.627l-.125.019-.125.019c-.538.083-.88-.163-1.131-.393.143.005.15.028.318.002l.062-.01c.039-.006 1.347-1.114 1.614-1.28l.125-.019.062-.01.125-.019c.177.046.856.232.875.381zm-5.55 2.298c.076-.5.207-1.094.377-1.549.047-.126 1.023-1 1.192-1.064-.287.603-.902 2.359-1.569 2.613zm18.338-8.598c-.353.218-.461.212-.567.596-.05.181-.164.632-.136.853l.007.051c.028.213-.093.261-.059.525.032.251-.078 1.361-.12 1.702l-.278 1.607c-.562-.23-1.948-2.285-2.052-3.086l.005-.054-.139-.493c-.864.133-1.451.621-1.751 1.105-.263.425-.164 1.493-.139 2.124l.087 1.018.118.91c-.453-.185-.797-1.043-1.913-.893l.008-.567-.004-.1.424-1.563c-.438-.027-1.567-.686-1.672-1.134a1.78 1.78 0 0 0 .636.005l.249-.038c1.524-.235 3.005-1.138 3.425-2.022.333.011.548.122.899.068l.128-.006.613-.16.125-.019c.46-.284 1.459-.866 1.545-1.321.222.091.386.692.561.893zm-10.652 6.589c-.727.256-1.517 1.232-2.142 1.619l-.125.019-.062.01-.125.019c-.328-.086-.97-.151-1.187-.333.193-.043.215-.085.43-.118l.125-.019c.679-.419 1.028-1.024 1.719-1.45l.125-.019.374-.058.125-.019c.292.076.62.093.744.349zm7.773.09l-.561.14c-.267.075-.147.153-.353.311l.008-.516-.006-.051c-.042-.325.207-.471.543-.542l.369.657zm-5.073-.351c-.217.35-1.78 1.718-2.372 1.809l-1.371.211c.075-.394 1.745-1.807 2.208-2.093l.125-.019.249-.038c.43-.066.794.118 1.161.131zm-12.77-2.416c.127.291.505.711.733.937l.418.414c.171.146.364.197.531.349-.044.294-.175.61-.132.948l.085.657c-.958.337-1.448 1.58-1.313 2.625l-.001.105.162.644c-.79-.048-1.97-1.648-2.098-2.461-.289.11-1.172.883-1.447 1.099l-.67.581-.639.6-.083-.504.008-.567c-.002-1.092.619-2.174 1.005-3.042.147-.331 1.578-2.563 1.825-2.601.264-.041 1.263.203 1.617.215zm22.072-.358l.033.253c.047.367-.051 1.008-.099 1.388-.039.31-.213 1.118-.184 1.337l.018.103-.085.164-.666-2.989-.078-.607c-.044-.344.274-.832.506-1.006.186.427.487.814.557 1.358zM28.288 54.1c-.349.262-1.247 1.017-1.765 1.097l-.187.029c-.557.086-1.398-.217-1.866-.177.059-.308 1.669-1.546 2.205-1.628l.062-.01.125-.019c.554.145 1.056.37 1.426.708zm-20.303 3.23l.072.556-.187.029c-.527.081-.552.283-.818.486l-.143-.544-.023-.049-.012-.719c-.018-.451.025-.62.06-.991.044-.471.085-.498.479-.742l.125-.019.128-.008.551-.148c.008.306-.155.675-.178 1.014l-.053 1.135zm6.773-1.198l.055.919.026.202c-.364-.049-.675-.794-.724-1.177l-.033-.253c-.095-.733.538-1.324 1.05-1.708-.045.295-.192.596-.256.968-.058.337-.135.667-.119 1.049zm14.172-.997l-.506.038-.567.024.01-.084.958-.787.105.809zm2.217-.548c.012.095-.961.444-1.145.486l-.078-.607c-.015-.116.024-.158.167-.18.254-.039.562-.221.853-.286.042.263.17.332.203.587zm-5.494 1.258l-.806.164-.925.206c.052-.341.264-.632.663-.772.422.014.983.038 1.069.402zm-2.5.477l-.104.027-.997.154c.18-.291.523-.802 1.03-.88l.062-.01c.256-.039.283-.141.615-.195l-.606.904zm-8.255 1.386l-.309.098-.039.162c-.383.033-.657-.383-.839-.593l-.013-.101-.073-.454-.008-.668.062-.01c.051.398.951 1.319 1.219 1.565zm14.716-6.133l.065.505c.039.303-.158.819-.145 1.26l.035 1.334.131 1.011c-.289-.201-.465-.904-.564-1.356l-.193-1.053-.156-.908.085-1.607c.404-.035.697.472.741.814zm-9.826 6.101c.051-.269.447-.847.594-1.14.235-.468.522-.604 1.191-.786l.555-.135c-.129.209-.297.323-.458.567l-.453.617c-.086.112-.55.304-.726.408-.231.137-.465.379-.702.469zm7.068-.882c-.272-.017-.122-.084-.325-.053l-.062.01c-.238.037-.021.019-.194-.022-.056.072.108.035-.118.07l-.187.029c-.072-.306-.062-.396-.426-.347.06-.097.11-.223.285-.25l.125-.019.125-.019c.314.082.646.332.777.602zm-11.142 1.819c-.274-.1-.348-.248-.787-.188-.056-.43.291-.663.794-.741l.81-.125c-.246.398-.573.54-.817 1.054zm3.303-.509l-.187.029c-.38.059-.683.295-1.027.416l.773-1.5c.199-.327 1.06-.912 1.57-1.026l-.592 1.001c-.094.194-.205.357-.266.542-.063.191-.062.506-.271.538zm-1.581.553c-.63.054-.662.092-1.233.293.044-.234.57-1.056.721-1.297.274-.436.773-.715 1.405-.938-.251.528-.807 1.372-.893 1.942zm17.528-10.432l.013.101.203 1.567-.062.01-.02-.152c-.037-.289-.176-.379-.203-.587l-.013-.101c-.238-.274-.095-.332-.502-.438-.492.304-.54.593-.755 1.044l-.007.105.399 1.948.085.657c.02.152.064.144.092.348l.147.701.265.884c.341-.13.427-.626.381-.987l-.02-.152.062-.01c.029.221.369.562.639.52.431-.066.582-.647 1.112-.738.194.402 1.02.674 1.502.8l.013.101.179 1.421-.671-.314-.125.019-.125.019c-.255.039-.593.635-.587.864-.193.043-.215.085-.43.118l-.374.057c-.047-.363-.334-.876-.741-.814-.331.051-.979.697-1.024.931-.419-.014-.484-.286-.794-.239s-.501.851-.65.873c-.197.03-.423-.141-.836-.077l-.187.029-.125.019c-.344.213-.41.269-.558.601-.087.195-.282.586-.276.816l-.125.019c-.082-.349-.559-.91-.892-.997l-.125.019-.062.01c-.14.022-.132.061-.236.14-.172-1.332 2.176-1.85 2.094-2.488l-.033-.253c-.065-.501-.924-2.384-1.255-2.333-.217.033-.076.103-.354.209l-.183-1.415c-.057-.441-.336-.722-.908-.633l-.046-.354c-.036-.279 1.074-.875 1.398-.989.144 1.117 1.444 3.68 2.435 3.594.03-.159.188-.416.23-.61.05-.232.073-.456.112-.68l.196-1.423c.01-.755.191-2.226.465-2.803.582.212.905.611 1.279 1.04zM8.391 58.504c.029.226.327.959.435 1.201l.243.602c.074.256.208.333.265.578-.081-.023-.073-.04-.193-.022l-.187.029c-.159.024-.265.216-.404.32-.282-.647-1.167-1.164-1.298-2.172l-.013-.101c.149-.315.399-.577.932-.659l.187-.029.033.253zm18.914.284c-.473-.172-1.019-.462-1.761-.347l-.177.028.008.668.03 1.181c-.449-.163-.899-.635-1.656-.518l-.374.058c-.215.033-.236.075-.43.118-.089-.204-.598-.693-.603-.732-.039-.302 1.456-2.647 1.812-2.702l.125-.019c.901.235 2.876 1.316 3.026 2.266zm-11.643.401c-.082.54-.871.692-1.335.979l-.125.018-.859.236-.123.022-.182.077.059.455c.067.521-.065 2.33-.516 2.399-.297.046-1.847-1.334-2.092-1.603-.576-.631-1.196-1.405-1.476-2.332l-.234-.893-.105-.809-.013-.101 1.402-.846.63-.465c.224-.179.359-.446.521-.577.121.771 1.338 1.653 1.871 2.071.356.279 2.151 1.342 2.578 1.368zm22.664-3.645c.121.933-1.44 2.84-2.34 3.041.203-.328.494-.618.735-1.009.288-.468.245-.764.443-1.183l-.013-.101-.013-.101-.028-.106.422-.78.125-.019.062-.01.125-.019c.174.045.456.088.482.287zm-27.664 7.25c-.561.086-.323.18-.659.308-.164-.375-.942-.894-1-1.341l-.013-.101c.122-.257.233-.329.577-.45.094.216.357.644.51.833l.585.751zm19.821-4.496l.006.051.013.101c-.483.298-.54.42-.68.949-.078.295-.221.934-.18 1.246l-.054.007-.142-.544-.135-.546c-.083-.295-.002-.505-.042-.818-.054-.414.058-.787.381-.987l.125-.019.187-.029.125-.019c.16.184.356.295.396.609zm-7.138-1.618a206.92 206.92 0 0 0-1.563 2.649c.002.014.679.724.731.844l-3.658 2.081c-.075-.579-.838-1.076-.842-1.108-.007-.055.688-.893.804-1.155l.547-1.354c.158-.477.092-.255.492-.547.222-.163.458-.288.694-.428l1.417-.837.125-.024 1.254-.122zm-11.037 7.046c.007.262-.164.39-.377.522-.29-.065-1.242-.269-1.276-.525s.162-.534.495-.592c.104.215.818.624 1.157.595zm5.242-2.715c.022.167.809 1.246.944 1.401-.524.324-1.325.874-2.158 1.003l-1.309.202c-.593.091-1.12-.034-1.646.047-.285.044-.142-.181-.089-.379l.14-.523c.064-.236.097-.898.061-1.177l-.072-.556c1.081-.166 2.356-.831 2.336-1.597.695-.107 1.04-.273 1.6-.401.532-.122 1.066-.37 1.532-.442.01.375-.301 1.007-.481 1.3l-.382.566c-.073.11-.485.493-.477.556zm-4.049 3.098l-.092.272-.125.019-.499.077-.126.022-.261-.066c.141-.228.274-.241.384-.471.239.087.371.194.718.147zm14.373-3.863c.027.209.106.11.124.343l.013.718c.004.512-.244 1.843-.555 2.096l-.033-.253c-.054-.416-.408-1.424-.63-1.674l-.894 1.29-.068-1.174-.058-.715.003-1.133-.012-.05.032-.777c.939-.145 1.983.591 2.079 1.329zm-.857 2.71c.028.218.267.594.298.831.012.097-1.094 1.844-1.227 1.94v-.415l.099-.891-1.054.407 1.686-2.409c.079.182.166.297.197.537h0zm-1.445 3.159l-1.843.825c.01-.176.388-.855.387-.857-.013-.101-.637-.133-.78-.138l-.013-.101 1.354-.829c.14.052.435.244.601.218.027-.004.349-.232.426-.269l-.132 1.15zm-2.233.346c-.083.213-.057.34-.177.594l-1.514.552c-.009-.169.035-.198.012-.372l-.013-.101-.013-.101-.415-.116c.325-.137 1.004-.645 1.203-.675.105-.016.774.182.918.219zm-2.303.87c-.006.23-.154.36-.246.553-.842.145-1.844 1.046-2.424 1.404.132-.694 1.35-1.543 1.965-2.004l.705.046zm-1.445-1.84c-.069-.535-.684-.616-1.338-.516.042-.222.014-.111.223-.241l.125-.019.249-.038.754-.066.125-.018c.468.122 1.252.102 1.81.237.398.096 1.269.345 1.42.658-.616.106-1.682.667-2.126.929-.736.435-1.058.715-1.652 1.211a4.74 4.74 0 0 0-1.178 1.492c-.171.35-.649 1.398-.639 1.766.753-.565 1.793-1.799 2.646-2.206.767-.366 3.058-1.184 4.007-1.396-.067.352-1.013 1.749-1.273 2.136-.364.543-1.102 1.485-1.848 1.747.178-.373.652-1.003.64-1.439-.348.133-1.778 1.385-2.118 1.68a3.34 3.34 0 0 0-1.196 2.182L18 73.424l-.003-.109-.007-.05c-.048-.368.156-1.045.272-1.332.118-.292.508-.946.549-1.166-.476.357-1.764 1.714-1.533 2.401l.116.394.012.102c.272.313.27.472.679.708.353.204.707.154 1.098.256l.125-.019.125-.019c1.284-.198 2.633-2.725 3.881-2.918l.187-.029.567-.03c-.196.179-.471.248-.749.481-.223.187-.406.324-.597.532l-.991 1.184c-.559.613-1.23 1.955-2.378 2.132l-.187.029c-1.057.163-1.328-.398-1.856-.59.098.416.993.868 1.292 1.141-.422-.014-1.7-.566-1.996-.786-.447-.331-1.093-.978-1.181-1.664l-.078-.606c-.209.156-.363.633-.325.926l-.062.01-.078-.607-.048-1.231c-.002-.909.466-1.856.83-2.55.187-.357.435-.736.66-1.1.214-.347.556-.74.713-1.069-.448.157-.823.333-1.407.423-.518.08-.925-.364-.99-.776.321.011.435.139.836.078l.312-.048c1.049-.161 1.842-1.727 3.805-2.029z"/><g stroke="#e1e1e6" stroke-width=".216"><path d="M49 12.582c11.237 0 20.349 8.904 20.349 19.882S60.237 52.347 49 52.347s-20.349-8.903-20.349-19.882S37.764 12.582 49 12.582z"/><path d="M49.287 51.891c-11.11-.19-20.059-8.816-20.059-19.427s8.949-19.237 20.059-19.426c-12.533 6.528-6.251 15.504 2.244 21.439 9.119 6.37 2.687 17.471-2.244 17.414z"/></g></g></g><path fill-rule="evenodd" d="M48.713 13.038c11.11.19 20.059 8.816 20.059 19.427s-8.949 19.237-20.059 19.426c12.533-6.528 6.252-15.504-2.244-21.439-9.119-6.37-2.687-17.471 2.244-17.414z" fill="#1b1918" stroke="#1b1918" stroke-width=".216"/><path fill-rule="evenodd" d="M49 18.442a2.51 2.51 0 0 1 2.507 2.507A2.51 2.51 0 0 1 49 23.456a2.51 2.51 0 0 1-2.507-2.507A2.51 2.51 0 0 1 49 18.442z" fill="#e1e1e6"/><path fill-rule="evenodd" d="M49 41.473a2.51 2.51 0 0 1 2.507 2.507A2.51 2.51 0 0 1 49 46.487a2.51 2.51 0 0 1-2.507-2.507A2.51 2.51 0 0 1 49 41.473z" fill="#1b1918"/></svg>