<?xml version="1.0" encoding="UTF-8"?>
<svg fill="none" viewBox="0 0 63 37" xmlns="http://www.w3.org/2000/svg">
<path d="m4.1016 15h-2.4766l0.01562-1.8281h2.4609c0.61459 0 1.1328-0.138 1.5547-0.4141 0.42187-0.2812 0.73958-0.6901 0.95313-1.2266 0.21874-0.5364 0.32812-1.1848 0.32812-1.9453v-0.55469c0-0.58333-0.0625-1.0964-0.1875-1.5391-0.11979-0.44271-0.29948-0.81511-0.53906-1.1172-0.23959-0.30208-0.53386-0.52865-0.88282-0.67969-0.34895-0.15625-0.75-0.23437-1.2031-0.23437h-2.5469v-1.8359h2.5469c0.76042 0 1.4557 0.13021 2.0859 0.39062 0.63541 0.25521 1.1849 0.6224 1.6484 1.1016 0.46354 0.47916 0.82031 1.0521 1.0703 1.7188 0.25521 0.66146 0.38281 1.3984 0.38281 2.2109v0.53906c0 0.80726-0.1276 1.5443-0.38281 2.211-0.25 0.6666-0.60677 1.2396-1.0703 1.7187-0.45834 0.474-1.0078 0.8412-1.6484 1.1016-0.63542 0.2552-1.3385 0.3828-2.1094 0.3828zm-1.1484-11.375v11.375h-2.3437v-11.375h2.3437zm8.0625 0h4.2422c0.8698 0 1.6172 0.13021 2.2422 0.39062 0.6302 0.26042 1.1146 0.64584 1.4531 1.1563 0.3386 0.51041 0.5078 1.138 0.5078 1.8828 0 0.60937-0.1041 1.1328-0.3125 1.5703-0.2031 0.43229-0.4922 0.79427-0.8672 1.0859-0.3697 0.28646-0.8046 0.51566-1.3046 0.68746l-0.7422 0.3907h-3.6875l-0.0157-1.8282h2.7422c0.4115 0 0.7526-0.07292 1.0235-0.21875 0.2708-0.14584 0.4739-0.34896 0.6093-0.60938 0.1407-0.26041 0.211-0.5625 0.211-0.90625 0-0.36458-0.0677-0.67968-0.2031-0.94531-0.1355-0.26563-0.3412-0.46875-0.6172-0.60937-0.2761-0.14063-0.6224-0.21094-1.0391-0.21094h-1.8984v9.5391h-2.3438v-11.375zm6.3594 11.375-2.5938-5.0703 2.4766-0.01563 2.625 4.9765v0.1094h-2.5078zm8.5156-9.4297-3.0937 9.4297h-2.4922l4.2265-11.375h1.586l-0.2266 1.9453zm2.5703 9.4297-3.1015-9.4297-0.25-1.9453h1.6015l4.25 11.375h-2.5zm-0.1406-4.2344v1.836h-6.0078v-1.836h6.0078zm12.57-1.7109v4.5078c-0.1771 0.2135-0.4505 0.4453-0.8203 0.6953-0.3698 0.2448-0.8463 0.4557-1.4297 0.6328-0.5833 0.1771-1.289 0.2656-2.1172 0.2656-0.7343 0-1.4036-0.1197-2.0078-0.3593-0.6041-0.2448-1.125-0.6016-1.5625-1.0703-0.4323-0.4688-0.7656-1.0417-1-1.7188-0.2343-0.6823-0.3515-1.4609-0.3515-2.3359v-0.71094c0-0.875 0.1119-1.6536 0.3359-2.3359 0.2292-0.68229 0.5547-1.2578 0.9766-1.7266 0.4218-0.46875 0.9244-0.82552 1.5078-1.0703 0.5833-0.24479 1.2317-0.36718 1.9453-0.36718 0.9896 0 1.8021 0.16146 2.4375 0.48437 0.6354 0.31771 1.1198 0.76042 1.4531 1.3281 0.3386 0.5625 0.5469 1.2083 0.625 1.9375h-2.2734c-0.0573-0.38542-0.1667-0.72136-0.3282-1.0078-0.1614-0.28645-0.3932-0.51041-0.6953-0.67187-0.2968-0.16146-0.6823-0.24219-1.1562-0.24219-0.3906 0-0.7396 0.08073-1.0469 0.24219-0.3021 0.15625-0.5573 0.38802-0.7656 0.69531s-0.3672 0.6875-0.4766 1.1406c-0.1094 0.45312-0.164 0.97916-0.164 1.5781v0.72657c0 0.59372 0.0573 1.1198 0.1718 1.5781 0.1146 0.4531 0.2839 0.8359 0.5078 1.1484 0.2292 0.3073 0.5105 0.5391 0.8438 0.6954 0.3333 0.1562 0.7214 0.2343 1.1641 0.2343 0.3698 0 0.677-0.0312 0.9218-0.0937 0.25-0.0625 0.4506-0.138 0.6016-0.2266 0.1563-0.0937 0.276-0.1823 0.3594-0.2656v-2.0156h-2.1407v-1.6719h4.4844zm6.5156-3.4844-3.0937 9.4297h-2.4922l4.2266-11.375h1.5859l-0.2266 1.9453zm2.5704 9.4297-3.1016-9.4297-0.25-1.9453h1.6016l4.25 11.375h-2.5zm-0.1407-4.2344v1.836h-6.0078v-1.836h6.0078zm-1.039-10.148 1.2969 0.085937c0 0.3802-0.0756 0.72656-0.2266 1.0391-0.1511 0.30729-0.3594 0.55469-0.625 0.74219-0.2656 0.18229-0.5703 0.27343-0.9141 0.27343-0.25 0-0.4661-0.03385-0.6484-0.10156-0.1771-0.06771-0.3412-0.14583-0.4922-0.23437-0.151-0.09376-0.3073-0.17448-0.4687-0.24219-0.1563-0.06771-0.336-0.10157-0.5391-0.10157-0.1823 0-0.3386 0.06511-0.4688 0.19532-0.125 0.13021-0.1875 0.31771-0.1875 0.5625l-1.3046-0.07032c0-0.375 0.0755-0.71874 0.2265-1.0312 0.1511-0.3125 0.3594-0.5625 0.625-0.75 0.2656-0.19271 0.5677-0.28906 0.9063-0.28906 0.2135 0 0.4088 0.036459 0.5859 0.10938 0.1771 0.067708 0.3464 0.14583 0.5078 0.23437 0.1667 0.08854 0.3359 0.16667 0.5078 0.23438s0.3542 0.10156 0.5469 0.10156c0.1823 0 0.3385-0.0651 0.4688-0.19531 0.1354-0.13542 0.2031-0.32292 0.2031-0.5625zm13.938 8.4297v0.53906c0 0.86456-0.1172 1.6407-0.3516 2.3282s-0.5651 1.2734-0.9922 1.7578c-0.4271 0.4791-0.9375 0.8463-1.5312 1.1015-0.5886 0.2552-1.2422 0.3828-1.961 0.3828-0.7135 0-1.3672-0.1276-1.9609-0.3828-0.5885-0.2552-1.099-0.6224-1.5313-1.1015-0.4322-0.4844-0.7682-1.0703-1.0078-1.7578-0.2343-0.6875-0.3515-1.4636-0.3515-2.3282v-0.53906c0-0.8698 0.1172-1.6458 0.3515-2.3281 0.2344-0.6875 0.5651-1.2734 0.9922-1.7578 0.4323-0.48438 0.9427-0.85417 1.5313-1.1094 0.5937-0.25521 1.2474-0.38281 1.9609-0.38281 0.7188 0 1.3724 0.1276 1.961 0.38281 0.5937 0.25521 1.1041 0.625 1.5312 1.1094 0.4323 0.48437 0.7656 1.0703 1 1.7578 0.2396 0.68229 0.3594 1.4583 0.3594 2.3281zm-2.3672 0.53906v-0.55469c0-0.60417-0.0547-1.1354-0.1641-1.5938-0.1093-0.45833-0.2708-0.84375-0.4843-1.1562-0.2136-0.3125-0.474-0.54687-0.7813-0.70313-0.3073-0.16145-0.6589-0.24218-1.0547-0.24218s-0.7474 0.08073-1.0547 0.24218c-0.3021 0.15626-0.5599 0.39063-0.7734 0.70313-0.2083 0.3125-0.3672 0.69792-0.4766 1.1562-0.1093 0.45833-0.164 0.98958-0.164 1.5938v0.55469c0 0.59896 0.0547 1.1302 0.164 1.5938 0.1094 0.4583 0.2709 0.8463 0.4844 1.1641 0.2135 0.3124 0.474 0.5494 0.7813 0.7109 0.3072 0.1614 0.6588 0.2422 1.0546 0.2422 0.3959 0 0.7474-0.0808 1.0547-0.2422 0.3073-0.1615 0.5651-0.3985 0.7735-0.7109 0.2083-0.3178 0.3672-0.7058 0.4765-1.1641 0.1094-0.4636 0.1641-0.9948 0.1641-1.5938zm-55.406 21.422h-2.9219l-0.01562-1.6094h2.4531c0.43229 0 0.78646-0.0546 1.0625-0.164 0.27604-0.1146 0.48177-0.2787 0.61719-0.4922 0.14063-0.2188 0.21094-0.4844 0.21094-0.7969 0-0.3542-0.06771-0.6406-0.20313-0.8594-0.13021-0.2187-0.33594-0.3776-0.61718-0.4765-0.27605-0.099-0.63282-0.1485-1.0703-0.1485h-1.625v9.5391h-2.3437v-11.375h3.9687c0.66146 0 1.2526 0.0625 1.7734 0.1875 0.52604 0.125 0.97135 0.3151 1.3359 0.5703 0.36458 0.2552 0.64323 0.5781 0.83594 0.9688 0.1927 0.3854 0.28906 0.8437 0.28906 1.375 0 0.4687-0.10677 0.901-0.32032 1.2968-0.20833 0.3959-0.53906 0.7188-0.99218 0.9688-0.44792 0.25-1.0339 0.388-1.7578 0.414l-0.67968 0.6016zm-0.10156 4.9922h-3.4609l0.91406-1.8281h2.5469c0.41145 0 0.74739-0.0651 1.0078-0.1953 0.26041-0.1355 0.45312-0.3177 0.57812-0.5469s0.1875-0.4922 0.1875-0.7891c0-0.3333-0.05729-0.6224-0.17187-0.8672-0.10938-0.2448-0.28646-0.4323-0.53125-0.5625-0.24479-0.1354-0.56771-0.2031-0.96875-0.2031h-2.2578l0.01563-1.6094h2.8125l0.53906 0.6328c0.69271-0.0104 1.25 0.112 1.6719 0.3672 0.42708 0.25 0.73698 0.5756 0.92969 0.9766 0.19791 0.401 0.29687 0.8307 0.29687 1.2891 0 0.7291-0.15885 1.3437-0.47656 1.8437-0.31771 0.4948-0.78386 0.8672-1.3984 1.1172-0.60937 0.25-1.3542 0.375-2.2344 0.375zm5.8672-11.375h4.2422c0.8697 0 1.6171 0.1302 2.2421 0.3906 0.6302 0.2604 1.1146 0.6459 1.4532 1.1563 0.3385 0.5104 0.5078 1.138 0.5078 1.8828 0 0.6094-0.1042 1.1328-0.3125 1.5703-0.2032 0.4323-0.4922 0.7943-0.8672 1.0859-0.3698 0.2865-0.8047 0.5157-1.3047 0.6875l-0.7422 0.3907h-3.6875l-0.0156-1.8282h2.7422c0.4114 0 0.7526-0.0729 1.0234-0.2187s0.474-0.349 0.6094-0.6094c0.1406-0.2604 0.2109-0.5625 0.2109-0.9062 0-0.3646-0.0677-0.6797-0.2031-0.9454-0.1354-0.2656-0.3411-0.4687-0.6172-0.6093-0.276-0.1407-0.6224-0.211-1.039-0.211h-1.8985v9.5391h-2.3437v-11.375zm6.3593 11.375-2.5937-5.0703 2.4766-0.0156 2.625 4.9765v0.1094h-2.5079zm8.5157-9.4297-3.0938 9.4297h-2.4922l4.2266-11.375h1.5859l-0.2265 1.9453zm2.5703 9.4297-3.1016-9.4297-0.25-1.9453h1.6016l4.25 11.375h-2.5zm-0.1407-4.2344v1.836h-6.0078v-1.836h6.0078zm12.953-7.1406v11.375h-2.3438l-4.5703-7.625v7.625h-2.3437v-11.375h2.3437l4.5781 7.6328v-7.6328h2.336zm8.6328 7.6016h2.3359c-0.0469 0.7656-0.2578 1.4453-0.6328 2.039-0.3698 0.5938-0.888 1.0573-1.5547 1.3906-0.6614 0.3334-1.4583 0.5-2.3906 0.5-0.7292 0-1.3828-0.125-1.9609-0.375-0.5782-0.2552-1.073-0.6197-1.4844-1.0937-0.4063-0.474-0.7162-1.0469-0.9297-1.7187-0.2135-0.6719-0.3203-1.4245-0.3203-2.2579v-0.789c0-0.8334 0.1094-1.586 0.3281-2.2578 0.224-0.6771 0.5417-1.2526 0.9531-1.7266 0.4167-0.474 0.9141-0.8385 1.4922-1.0937 0.5781-0.2553 1.224-0.3829 1.9375-0.3829 0.9479 0 1.7474 0.1719 2.3985 0.5157 0.6562 0.3437 1.164 0.8177 1.5234 1.4218 0.3646 0.6042 0.5833 1.2917 0.6563 2.0625h-2.3438c-0.026-0.4583-0.1172-0.8463-0.2734-1.164-0.1563-0.3229-0.3933-0.5651-0.711-0.7266-0.3125-0.1667-0.7291-0.25-1.25-0.25-0.3906 0-0.7317 0.0729-1.0234 0.2188-0.2917 0.1458-0.5365 0.3671-0.7344 0.664s-0.3463 0.6719-0.4453 1.125c-0.0937 0.4479-0.1406 0.974-0.1406 1.5781v0.8047c0 0.5886 0.0442 1.1068 0.1328 1.5547 0.0885 0.4427 0.2239 0.8177 0.4062 1.125 0.1875 0.3021 0.4271 0.5313 0.7188 0.6875 0.2969 0.1511 0.6536 0.2266 1.0703 0.2266 0.4896 0 0.8932-0.0781 1.2109-0.2344 0.3177-0.1562 0.5599-0.388 0.7266-0.6953 0.1719-0.3073 0.2734-0.6901 0.3047-1.1484zm13.219-2.1797v0.539c0 0.8646-0.1171 1.6407-0.3515 2.3282s-0.5651 1.2734-0.9922 1.7578c-0.4271 0.4791-0.9375 0.8463-1.5313 1.1015-0.5885 0.2552-1.2421 0.3828-1.9609 0.3828-0.7135 0-1.3672-0.1276-1.9609-0.3828-0.5886-0.2552-1.099-0.6224-1.5313-1.1015-0.4323-0.4844-0.7682-1.0703-1.0078-1.7578-0.2344-0.6875-0.3516-1.4636-0.3516-2.3282v-0.539c0-0.8698 0.1172-1.6459 0.3516-2.3281 0.2344-0.6876 0.5651-1.2735 0.9922-1.7579 0.4323-0.4843 0.9427-0.8541 1.5312-1.1093 0.5938-0.2552 1.2474-0.3828 1.961-0.3828 0.7187 0 1.3724 0.1276 1.9609 0.3828 0.5938 0.2552 1.1042 0.625 1.5313 1.1093 0.4323 0.4844 0.7656 1.0703 1 1.7579 0.2395 0.6822 0.3593 1.4583 0.3593 2.3281zm-2.3671 0.539v-0.5547c0-0.6041-0.0547-1.1354-0.1641-1.5937s-0.2708-0.8437-0.4844-1.1563c-0.2135-0.3124-0.4739-0.5468-0.7812-0.7031-0.3073-0.1614-0.6589-0.2422-1.0547-0.2422-0.3959 0-0.7474 0.0808-1.0547 0.2422-0.3021 0.1563-0.5599 0.3907-0.7735 0.7031-0.2083 0.3126-0.3671 0.698-0.4765 1.1563s-0.1641 0.9896-0.1641 1.5937v0.5547c0 0.599 0.0547 1.1302 0.1641 1.5938 0.1094 0.4583 0.2708 0.8463 0.4844 1.1641 0.2135 0.3124 0.4739 0.5494 0.7812 0.7109 0.3073 0.1614 0.6589 0.2422 1.0547 0.2422s0.7474-0.0808 1.0547-0.2422c0.3073-0.1615 0.5651-0.3985 0.7734-0.7109 0.2084-0.3178 0.3672-0.7058 0.4766-1.1641 0.1094-0.4636 0.1641-0.9948 0.1641-1.5938z" fill="#fff"/>
</svg>