<svg xmlns="http://www.w3.org/2000/svg" width="48" height="40" fill="none" xmlns:v="https://vecta.io/nano"><path fill-rule="evenodd" d="M.594.034C.401.073.182.264.106.461.005.721-.002 4.004.098 4.679.41 6.805 1.324 8.529 2.861 9.892c.54.479.592.545.711.909.071.216.22.567.333.781l.205.388-.167.213c-.279.357-.739 1.173-.954 1.689-.388.932-.492 1.499-.492 2.672 0 1.111.1 1.709.417 2.49.073.18.122.337.109.348s-.212.046-.441.076c-1.277.171-2.333 1.076-2.54 2.177-.088.466-.038.811.208 1.451.498 1.294 1.555 2.807 2.682 3.838l.377.345v.359c0 .87.314 2.291.761 3.442 1.714 4.414 6.18 7.763 11.561 8.671 1.486.251 1.667.256 7.942.256s6.456-.006 7.942-.256c5.381-.908 9.847-4.257 11.561-8.671.447-1.151.761-2.572.761-3.442v-.359l.377-.345c1.386-1.268 2.734-3.407 2.917-4.626.195-1.3-1.008-2.631-2.567-2.84a3.29 3.29 0 0 1-.441-.076c-.013-.011.036-.168.109-.348.317-.781.417-1.379.417-2.49 0-1.173-.104-1.74-.492-2.672-.215-.516-.676-1.332-.954-1.689l-.166-.213.205-.388a6.08 6.08 0 0 0 .333-.781c.119-.364.17-.43.711-.909 1.537-1.364 2.452-3.09 2.763-5.213.099-.674.092-3.961-.008-4.22a.88.88 0 0 0-.234-.305l-.167-.133L41.69.005c-3.155-.01-5.18.005-5.593.042-1.525.138-2.881.758-3.803 1.739a4.95 4.95 0 0 0-.531.67c-.092.155-.176.29-.186.3s-.367-.094-.793-.231c-4.615-1.489-9.809-1.489-14.425 0-.425.137-.782.241-.793.231s-.095-.145-.186-.3c-.384-.649-1.225-1.375-2.104-1.817-.536-.269-1.456-.52-2.16-.588C10.536-.005.862-.021.594.034zm11.292 1.353c.599.198 1.107.465 1.521.801.339.275.882.92.882 1.047 0 .035-.257.185-.572.332-.716.336-1.854.969-2.514 1.399-.61.398-1.91 1.376-2.239 1.685l-.239.224-2.177-.318c-1.95-.285-2.199-.311-2.386-.245-.331.116-.563.61-.785 1.665l-.111.527-.24-.277c-.376-.435-.863-1.287-1.113-1.947-.393-1.038-.454-1.459-.486-3.364l-.029-1.707 5.023.016 5.023.016.441.145zm33.829 1.532c-.032 1.903-.094 2.325-.486 3.362-.25.66-.737 1.512-1.113 1.947l-.24.277-.111-.527c-.222-1.056-.454-1.549-.785-1.665-.187-.066-.436-.04-2.384.245l-2.176.318-.269-.247c-1.031-.948-3.166-2.332-4.726-3.062-.315-.147-.572-.294-.572-.326s.062-.146.138-.253c.458-.646 1.097-1.145 1.856-1.448.818-.326.681-.319 6.004-.323l4.893-.004-.029 1.705zm-19.992-.232c4.001.395 7.548 1.772 10.692 4.15.179.136.311.259.294.274s-.738.13-1.601.256c-1.859.271-2.416.378-3.203.614-1.335.401-2.404.958-3.39 1.769-.66.542-1.406 1.407-1.653 1.916-.066.137-.135.242-.153.235l-.654-.278a5.51 5.51 0 0 0-2.484-.495 5.51 5.51 0 0 0-2.484.495l-.654.278c-.018.007-.087-.098-.153-.235-.247-.509-.993-1.374-1.653-1.916-.987-.81-2.056-1.368-3.391-1.769-.786-.236-1.343-.343-3.203-.614l-1.601-.256c-.088-.074 1.724-1.314 2.784-1.905 2.618-1.459 5.252-2.239 8.687-2.571.611-.059 3.03-.027 3.819.051zM9.419 8.172l4.968.809c1.332.351 2.307.827 3.227 1.575.673.547 1.033.967 1.419 1.66l.298.533-.202.216c-.534.572-1.018 1.586-1.105 2.315-.04.332-.061.377-.175.368a695.45 695.45 0 0 1-7.288-1.076c-2.946-.544-5.197-2.282-5.763-4.45-.221-.845-.089-2.587.195-2.587.06 0 2.051.287 4.423.637zm32.912-.373c.041.145.09.613.109 1.04.029.65.013.859-.098 1.284-.566 2.168-2.817 3.907-5.763 4.45a695.06 695.06 0 0 1-7.288 1.076c-.114.009-.135-.036-.175-.368-.087-.729-.571-1.743-1.105-2.315l-.202-.216.298-.533c.387-.693.746-1.113 1.42-1.66.921-.748 1.895-1.224 3.227-1.575.43-.113 2.109-.389 4.903-.804l4.424-.637c.155-.004.183.024.249.259zM24.96 12.482c1.228.39 2.224 1.252 2.611 2.26.191.498.236 1.458.092 1.946-.118.4-.48 1.056-.707 1.281-.145.144-.161.147-.565.097-.864-.106-1.81.153-2.461.675l-.359.288-.359-.288c-.651-.522-1.596-.782-2.461-.675-.404.05-.42.047-.565-.097-.219-.217-.586-.875-.7-1.255-.145-.483-.128-1.301.036-1.805.398-1.219 1.548-2.184 3.002-2.521.58-.134 1.872-.084 2.435.094zM5.54 13.578c.497.422 1.72 1.201 2.015 1.285.065.018.059.111-.03.437a5.26 5.26 0 0 0-.075 2.143c.501 2.438 2.76 4.228 5.687 4.505 1.499.142 3.267-.272 4.465-1.045l.338-.218.041.232c.023.127.056.297.074.378.028.125-.032.196-.427.495-1.546 1.174-3.397 1.77-5.496 1.77-2.206 0-4.132-.651-5.7-1.927-.737-.6-1.24-1.166-1.67-1.878a6.03 6.03 0 0 1-.132-6.189c.145-.267.277-.485.293-.485s.293.224.616.499zm36.973-.013c1.097 2.013 1.05 4.23-.132 6.189-.43.713-.933 1.279-1.67 1.878-1.568 1.276-3.494 1.927-5.7 1.927-2.099 0-3.95-.596-5.496-1.77-.395-.3-.455-.37-.427-.495.018-.08.051-.251.074-.378l.041-.232.338.218c1.198.773 2.966 1.187 4.465 1.045 3.429-.324 5.914-2.752 5.758-5.624-.018-.335-.084-.796-.146-1.023-.089-.326-.096-.418-.03-.437.303-.086 1.515-.861 2.005-1.282.317-.272.594-.496.615-.498s.158.215.304.482zm-19.345.348c-.422.06-1.064.362-1.329.625-1.204 1.194-.434 3.005 1.384 3.256s3.229-1.367 2.44-2.791c-.228-.412-.552-.683-1.065-.892s-.945-.268-1.43-.198zm.908 1.272a.75.75 0 0 1-.04 1.358c-.637.28-1.378-.085-1.379-.679-.001-.473.364-.787.915-.787a1.2 1.2 0 0 1 .503.108zm-14.329.409c.324.078.755.169.959.203l.371.061-.157.288c-.763 1.396.062 3.057 1.79 3.605.291.093.518.118 1.057.118s.766-.025 1.057-.118c.862-.274 1.584-.886 1.906-1.617.107-.242.139-.443.14-.871l.002-.557.611.085.611.085.146.388a4.05 4.05 0 0 0 .228.518c.073.114.052.183-.175.582-.871 1.531-2.535 2.421-4.525 2.421-2.901 0-5.185-2.037-5.007-4.463.047-.644.141-.935.289-.899l.698.169zm28.532.023c.126.378.149 1.176.047 1.651-.445 2.078-2.471 3.519-4.948 3.519-1.991 0-3.654-.89-4.525-2.421-.227-.399-.248-.468-.175-.582.045-.071.148-.304.228-.518l.146-.388.611-.085.611-.085.002.557c.002.428.034.629.14.871.322.731 1.044 1.343 1.906 1.617.291.093.517.118 1.057.118s.766-.025 1.057-.118c1.728-.548 2.553-2.21 1.79-3.605l-.157-.288.371-.062c.455-.076 1.228-.25 1.45-.325.268-.091.317-.073.39.145zm-24.192.681c.625.093 1.16.18 1.188.195s.101.155.162.311c.266.679-.114 1.424-.91 1.781-.209.094-.382.121-.761.121-.55 0-.874-.109-1.237-.418s-.492-.583-.492-1.049c0-.459.096-.675.441-.983.138-.123.242-.171.336-.153.075.014.647.102 1.273.194zm20.578-.043c.346.309.443.524.442.984 0 .321-.033.468-.143.645-.182.292-.482.546-.826.7a2.32 2.32 0 0 1-1.521 0c-.798-.358-1.176-1.101-.908-1.785.062-.159.152-.302.201-.317s.626-.111 1.284-.212l1.233-.189c.02-.003.127.075.238.174zm-12.84 3.093c.368.15.581.309.802.597.25.326.303.968.11 1.342-.609 1.18-2.628 1.184-3.23.006-.203-.397-.144-1.013.13-1.373a1.83 1.83 0 0 1 .888-.612c.338-.108.985-.089 1.299.039zm4.762-.049c.353.102.729.357.936.636a1.44 1.44 0 0 1 .116 1.358c-.489.956-2.008 1.19-2.871.442-.368-.318-.492-.622-.46-1.122.04-.611.339-.983 1.024-1.274.274-.116.92-.137 1.255-.04zM3.61 20.654c.079.018.304.238.523.511.211.264.663.727 1.005 1.029 1.184 1.047 2.387 1.695 3.979 2.142a10.18 10.18 0 0 0 3.016.403c2.357 0 4.408-.641 6.281-1.963l.389-.275.244.199c.568.463 1.646.743 2.467.64.734-.091 1.213-.282 1.712-.683l.347-.278.347.278c.499.4.978.591 1.712.683.821.102 1.899-.178 2.467-.64l.244-.199.389.275c1.036.731 2.06 1.222 3.241 1.554 1.068.3 1.882.409 3.04.409 1.823 0 3.437-.377 5.001-1.168 1.062-.537 2.294-1.525 2.999-2.405.219-.273.444-.493.523-.511.235-.054.829-.037 1.096.031.359.091.767.409.947.737.219.399.206.787-.047 1.395-.613 1.473-1.515 2.652-2.884 3.77-1.424 1.163-3.112 1.931-5.117 2.331-.741.148-.867.156-2.288.156-1.651 0-2.212-.068-3.465-.417-.871-.242-2.327-.879-3.04-1.328-1.197-.754-2.29-1.194-3.53-1.421-.826-.151-2.559-.139-3.385.023-1.21.238-2.245.662-3.413 1.398-.712.449-2.169 1.085-3.04 1.328-1.253.349-1.813.416-3.465.417-1.421 0-1.547-.008-2.288-.156-2.006-.4-3.693-1.168-5.117-2.331-1.369-1.118-2.272-2.297-2.884-3.77-.253-.609-.266-.996-.046-1.397.169-.308.553-.617.898-.723a3.52 3.52 0 0 1 1.143-.043zm21.614 6.476c.705.153 1.666.522 2.172.833 1.505.927 2.617 1.436 3.935 1.803 1.533.427 3.252.608 4.781.503.835-.057 1.989-.223 2.34-.336.163-.052.168-.048.127.099-.024.084-.217.459-.428.832-1.469 2.592-4.161 4.384-7.541 5.019-.663.124-.669.125-7.037.125s-6.374 0-7.037-.125c-3.375-.634-6.074-2.43-7.541-5.019-.212-.373-.404-.748-.428-.832-.042-.147-.036-.151.127-.099.351.113 1.504.279 2.34.336 1.529.105 3.248-.076 4.781-.503 1.318-.367 2.429-.876 3.935-1.803.707-.435 1.892-.831 2.882-.964.652-.087 1.874-.026 2.595.131zM6.341 29.151l.517.227.277.709c.47 1.202.981 2.041 1.847 3.031 2.056 2.349 5.266 3.839 8.798 4.08.484.033 2.951.058 5.792.058l5.792-.058c3.531-.241 6.742-1.73 8.798-4.08a9.44 9.44 0 0 0 1.847-3.031l.277-.709.517-.227a16.09 16.09 0 0 0 1.056-.524c.297-.163.539-.279.539-.257s-.046.265-.101.539c-1.038 5.142-5.913 9.141-11.961 9.813-1.12.124-12.408.124-13.528 0-5.556-.618-10.242-4.111-11.669-8.7-.158-.507-.392-1.493-.393-1.653 0-.022.243.093.539.257s.772.399 1.056.524z" fill="#ff7a29"/></svg>