<svg width="69" height="40" viewBox="0 0 69 40" fill="none" xmlns="http://www.w3.org/2000/svg">
<path fill-rule="evenodd" clip-rule="evenodd" d="M29.9151 0.198479C15.4869 2.04626 3.62157 13.1519 0.296446 27.9207C0.115563 28.7239 -0.0170306 29.3965 0.00177796 29.4153C0.0356601 29.4492 20.3863 33.0619 25.5045 33.9426C26.9718 34.1951 28.2324 34.423 28.3058 34.4493C28.3791 34.4755 28.5153 34.8989 28.6083 35.3902C29.1288 38.1386 31.3497 40 34.1084 40C36.8446 40 39.0616 38.1628 39.5916 35.4562C39.684 34.984 39.7938 34.5568 39.8355 34.5071C39.8771 34.4573 41.0216 34.2319 42.3789 34.0059C43.7362 33.7801 45.1468 33.5328 45.5136 33.4565C45.8805 33.3802 51.1278 32.4501 57.1743 31.3899C63.2209 30.3297 68.1845 29.4457 68.2047 29.4257C68.2752 29.3551 67.7339 26.7762 67.3371 25.2925C64.5977 15.0494 56.9097 6.436 46.9143 2.41149C44.1091 1.28204 40.7789 0.444191 37.8153 0.122444C36.0408 -0.0703108 31.6863 -0.028425 29.9151 0.198479ZM33.0413 12.4421V22.768L32.0742 22.9227C30.6698 23.1475 29.6339 23.5146 28.4521 24.2064C27.8785 24.5421 27.3647 24.7665 27.3101 24.7049C27.2557 24.6434 24.3721 21.2014 20.9021 17.0562C17.432 12.911 14.4796 9.39308 14.341 9.23861C14.0897 8.95835 14.0918 8.95568 15.1947 8.16532C18.2831 5.95191 21.1041 4.56781 24.9477 3.38033C27.0591 2.72803 30.3423 2.15724 32.1409 2.12976L33.0413 2.11602V12.4421ZM39.0823 2.44697C43.9755 3.18744 48.9196 5.21464 53.0211 8.16225C53.9997 8.86551 54.1045 8.98049 53.9415 9.17098C53.8402 9.2893 50.8881 12.8076 47.381 16.9895C43.874 21.1714 40.9568 24.6468 40.8982 24.7129C40.8368 24.7821 40.6622 24.7482 40.4848 24.6326C39.0436 23.6928 37.7356 23.1778 36.1427 22.9229L35.1756 22.768V12.4219V2.07587L36.4762 2.16271C37.1916 2.21046 38.3642 2.33839 39.0823 2.44697ZM19.1863 18.298L25.8072 26.1937L25.3891 26.67C24.132 28.102 23.7601 28.714 23.2232 30.2343C23.0106 30.8362 22.7766 31.331 22.7032 31.3338C22.6299 31.3366 18.0304 30.5461 12.4824 29.577L2.39487 27.8151L2.82987 26.1374C3.9225 21.9221 5.93422 17.8755 8.70362 14.3216C9.66846 13.0834 12.236 10.3774 12.4319 10.3922C12.5052 10.3978 15.5447 13.9554 19.1863 18.298ZM57.2697 11.8872C59.3764 14.0379 60.6977 15.782 62.1459 18.3234C63.8283 21.2757 64.755 23.6018 65.6308 27.0702C65.7321 27.4715 65.4712 27.8742 65.0636 27.9458L55.7994 29.5727C50.289 30.5405 45.6849 31.3315 45.5681 31.3308C45.4357 31.3299 45.2942 31.1238 45.1922 30.7831C44.8445 29.623 44.1199 28.2768 43.2897 27.2483L42.4244 26.1765L49.0379 18.2881C52.6754 13.9494 55.685 10.3966 55.7256 10.393C55.7665 10.3894 56.4612 11.0618 57.2697 11.8872ZM37.1765 25.3865C38.6278 25.9212 39.4334 26.4178 40.5673 27.4765C41.616 28.4561 42.5594 29.8149 43.0362 31.0335C43.2427 31.5607 43.2702 31.7512 43.1456 31.7898C42.8847 31.8708 39.7876 32.3965 39.5709 32.3965C39.4643 32.3965 39.2284 32.1164 39.0468 31.774C37.0019 27.9193 31.215 27.9193 29.17 31.774C28.7839 32.5019 28.8962 32.4884 26.6384 32.0786C24.7309 31.7325 24.7967 31.8227 25.4382 30.4316C26.4537 28.2297 28.3333 26.4397 30.5124 25.5993C32.1053 24.985 32.415 24.9352 34.3752 24.9783C35.9529 25.013 36.3 25.0636 37.1765 25.3865ZM35.5915 31.222C37.7921 32.1452 38.3514 35.2029 36.634 36.9203C35.2201 38.3342 32.9967 38.3342 31.5829 36.9203C29.9337 35.2712 30.3675 32.3636 32.4202 31.308C33.4524 30.7773 34.4659 30.7498 35.5915 31.222Z" fill="#FF7A29"/>
</svg>
