<svg xmlns="http://www.w3.org/2000/svg" width="96" height="58" fill="none" xmlns:v="https://vecta.io/nano"><g stroke-width="2"><circle cx="72.381" cy="15.238" r="14.238" stroke="url(#A)"/><circle cx="22.857" cy="15.238" r="14.238" stroke="url(#B)"/><path d="M53.5239 56.1428C51.8085 56.1428 50.6026 54.7803 50.8577 53.3373C51.1335 51.7776 51.5786 50.2488 52.1877 48.7785C53.2861 46.1266 54.8961 43.7171 56.9257 41.6875C58.9553 39.6579 61.3648 38.0479 64.0167 36.9495C66.6685 35.851 69.5107 35.2857 72.381 35.2857C75.2513 35.2857 78.0936 35.851 80.7454 36.9495C83.3972 38.0479 85.8067 39.6579 87.8364 41.6875C89.866 43.7171 91.476 46.1266 92.5744 48.7785C93.1834 50.2488 93.6286 51.7776 93.9043 53.3373C94.1595 54.7803 92.9535 56.1428 91.2382 56.1428L72.381 56.1428L53.5239 56.1428Z" stroke="url(#C)"/><path d="M4.00008 56.1428C2.28471 56.1428 1.07878 54.7803 1.33391 53.3373C1.60968 51.7776 2.05483 50.2488 2.66385 48.7785C3.76227 46.1266 5.37226 43.7171 7.40188 41.6875C9.43151 39.6579 11.841 38.0479 14.4928 36.9495C17.1447 35.851 19.9869 35.2857 22.8572 35.2857C25.7275 35.2857 28.5698 35.851 31.2216 36.9495C33.8734 38.0479 36.2829 39.6579 38.3125 41.6875C40.3422 43.7171 41.9522 46.1266 43.0506 48.7785C43.6596 50.2488 44.1047 51.7776 44.3805 53.3373C44.6357 54.7803 43.4297 56.1428 41.7144 56.1428L22.8572 56.1428L4.00008 56.1428Z" stroke="url(#D)"/></g><defs><linearGradient id="A" x1="72.381" y1="0" x2="72.381" y2="30.476" gradientUnits="userSpaceOnUse"><stop stop-color="#ff7a29"/><stop offset="1" stop-color="#1b1918"/></linearGradient><linearGradient id="B" x1="22.857" y1="0" x2="22.857" y2="30.476" gradientUnits="userSpaceOnUse"><stop stop-color="#ff7a29"/><stop offset="1" stop-color="#1b1918"/></linearGradient><linearGradient id="C" x1="72.381" y1="57.143" x2="72.381" y2="34.286" gradientUnits="userSpaceOnUse"><stop stop-color="#1b1918"/><stop offset="1" stop-color="#ff7a29"/></linearGradient><linearGradient id="D" x1="23" y1="34" x2="23" y2="57" gradientUnits="userSpaceOnUse"><stop stop-color="#ff7a29"/><stop offset="1" stop-color="#1b1918"/></linearGradient></defs></svg>