<svg width="60" height="60" viewBox="0 0 60 60" fill="none" xmlns="http://www.w3.org/2000/svg">
<path d="M52.1 11.5249C50.8231 10.2474 49.307 9.23404 47.6384 8.54264C45.9697 7.85123 44.1812 7.49536 42.375 7.49536C40.5688 7.49536 38.7803 7.85123 37.1116 8.54264C35.443 9.23404 33.9269 10.2474 32.65 11.5249L31.4142 12.7607C30.6332 13.5418 29.3668 13.5418 28.5858 12.7607L27.35 11.5249C24.7708 8.9457 21.2726 7.4967 17.625 7.4967C13.9774 7.4967 10.4792 8.9457 7.89999 11.5249C5.32076 14.1042 3.87177 17.6023 3.87177 21.2499C3.87177 24.8975 5.32076 28.3957 7.89999 30.9749L10.55 33.6249L28.5858 51.6607C29.3668 52.4418 30.6332 52.4418 31.4142 51.6607L49.45 33.6249L52.1 30.9749C53.3775 29.698 54.3909 28.182 55.0823 26.5133C55.7737 24.8447 56.1296 23.0561 56.1296 21.2499C56.1296 19.4437 55.7737 17.6552 55.0823 15.9865C54.3909 14.3179 53.3775 12.8018 52.1 11.5249Z" stroke="url(#paint0_linear_10_25)" stroke-width="2" stroke-linecap="round" stroke-linejoin="round"/>
<defs>
<linearGradient id="paint0_linear_10_25" x1="30.0007" y1="7.49536" x2="30.0007" y2="53.0749" gradientUnits="userSpaceOnUse">
<stop stop-color="#FF7A29"/>
<stop offset="1" stop-color="#1B1918"/>
</linearGradient>
</defs>
</svg>
