<svg xmlns="http://www.w3.org/2000/svg" width="43" height="42" fill="none" xmlns:v="https://vecta.io/nano"><g fill="#ff7a29"><path fill-rule="evenodd" d="M41.938 21c0-11.044-9.166-20-20.469-20S1 9.956 1 21s9.166 20 20.469 20 20.469-8.956 20.469-20zm-.58 0c0-10.674-9.001-19.351-20.177-19.541-4.96-.057-11.43 11.11-2.257 17.517 8.546 5.97 14.864 14.999 2.257 21.566C32.357 40.351 41.358 31.674 41.358 21z"/><path d="M21.181 1.459l.002-.108h-.001l-.001.108zm-2.257 17.517l.062-.088-.062.088zm2.257 21.566l-.05-.096.052.204-.002-.108zm.288-39.433c11.246 0 20.361 8.91 20.361 19.892h.216C42.046 9.894 32.83.892 21.469.892v.216zM1.108 21c0-10.982 9.116-19.892 20.361-19.892V.892C10.109.892.892 9.894.892 21h.216zm20.361 19.892c-11.246 0-20.361-8.91-20.361-19.892H.892c0 11.106 9.217 20.108 20.577 20.108v-.216zM41.83 21c0 10.982-9.115 19.892-20.361 19.892v.216c11.36 0 20.577-9.002 20.577-20.108h-.216zM21.179 1.567C32.301 1.757 41.25 10.39 41.25 21h.216c0-10.737-9.054-19.458-20.283-19.649l-.004.216zm-2.194 17.321c-4.544-3.174-5.209-7.517-4.13-11.063.54-1.776 1.518-3.351 2.666-4.477s2.458-1.795 3.658-1.781l.002-.216c-1.279-.015-2.64.693-3.812 1.843s-2.17 2.759-2.721 4.568c-1.103 3.625-.416 8.069 4.213 11.303l.124-.177zm2.245 21.75c3.163-1.648 5.151-3.456 6.212-5.344s1.189-3.852.646-5.788c-1.083-3.862-4.826-7.631-9.103-10.618l-.124.177c4.269 2.982 7.958 6.713 9.019 10.499.529 1.888.405 3.789-.626 5.624s-2.983 3.622-6.123 5.258l.1.192zM41.25 21c0 10.61-8.949 19.243-20.071 19.434l.004.216c11.229-.192 20.283-8.912 20.283-19.65h-.216z"/><path d="M21.469 6.895c1.393 0 2.522 1.129 2.522 2.522s-1.129 2.522-2.522 2.522-2.522-1.129-2.522-2.522 1.129-2.522 2.522-2.522z" fill-rule="evenodd"/></g><path fill-rule="evenodd" d="M21.469 30.062c1.393 0 2.522 1.13 2.522 2.522s-1.129 2.522-2.522 2.522-2.522-1.13-2.522-2.522 1.129-2.522 2.522-2.522z" fill="#121214"/></svg>